<svg version="1.1" xmlns="http://www.w3.org/2000/svg" viewBox="0 0 1151.2792968749982 1007.4961751302108" width="2302.5585937499964" height="2014.9923502604215">
  <!-- svg-source:excalidraw -->
  
  <defs>
    <style class="style-fonts">
      @font-face {
        font-family: "Virgil";
        src: url("https://excalidraw.com/Virgil.woff2");
      }
      @font-face {
        font-family: "Cascadia";
        src: url("https://excalidraw.com/Cascadia.woff2");
      }
    </style>
  </defs>
  <g stroke-linecap="round" transform="translate(165.11458333333212 343.3822428385438) rotate(0 117.19482421875 117.19482421875)"><path d="M36.12 34.04 C36.12 34.04, 36.12 34.04, 36.12 34.04 M36.12 34.04 C36.12 34.04, 36.12 34.04, 36.12 34.04 M11.91 68.1 C25.19 52.52, 39.61 36.24, 50.16 23.23 M13.74 66.59 C25.76 51.97, 37.41 37.4, 50.66 23.53 M10.92 78.44 C28.81 56.3, 44.21 39.33, 65.77 12.74 M10.1 77.57 C25.09 60.57, 38.46 43.2, 64.29 12.58 M8.42 87.99 C24.27 69.24, 38.98 49.71, 70.44 9.98 M5.59 85.58 C25.16 65.44, 40.76 46.36, 71.87 11.32 M1.09 96.29 C22.48 71.25, 45.36 48.15, 78.4 9.63 M2.96 96.77 C26.98 69.22, 49.66 43.07, 78.99 8.16 M-0.3 108.01 C23.83 81.13, 45.43 55.86, 84.4 8.73 M-0.05 105.64 C24.32 78.96, 47.26 52.45, 85.29 7.46 M1.02 111.03 C31.11 78, 57.13 44.02, 90.85 7.87 M1.34 110.08 C24.09 83.67, 46.14 59.24, 91.61 5.8 M2.67 117.16 C28.66 83.83, 60.62 51.14, 100.52 5.18 M1.75 117 C32.59 81.67, 63.13 44.91, 98.76 4.82 M0.8 120.43 C31.95 87.11, 60.82 56.28, 107.11 3.42 M1.52 121.57 C22.48 97.45, 44.91 70.14, 106.18 3.22 M0.88 129.23 C46.14 81.32, 87.49 32.93, 112.55 2.57 M1.45 128.31 C40.25 84.22, 75.49 43.65, 111.27 2.38 M3.58 134.21 C35.22 96.3, 64.79 64.95, 114.96 1.99 M2.79 131.87 C46.39 82.64, 89.63 32.57, 115.43 3.4 M2.8 136.64 C27.7 113.44, 53.37 83.81, 121.93 5.03 M3.35 138.4 C49.37 85.53, 94.95 33.14, 121.41 2.65 M2.23 145.28 C47.06 94.59, 87.45 46.6, 125.83 1.93 M4.06 143.34 C49.3 93.73, 94.35 41.59, 126.66 3.61 M7.31 146.5 C52.59 93.18, 99.3 38.03, 133.11 2.39 M7.05 146.42 C47.15 101.62, 86.97 55.43, 130.7 4.39 M7.94 152.45 C57.87 94.09, 111.4 36.87, 136.91 5.02 M8.43 150.86 C41.69 113.44, 77.19 72.78, 135.8 4.12 M11.02 157.36 C60.91 97.08, 112.97 38.82, 141.02 7.41 M10.81 156.54 C47.03 110.41, 87.55 65.9, 141.01 5.92 M13.58 158.78 C52.29 115.2, 93.39 68.11, 146.96 4.65 M12.72 158.24 C40.86 129.45, 68.54 97.38, 145.46 6.23 M14.23 164.76 C49.56 123.78, 84.48 81.77, 151.44 6.5 M13.57 163.66 C51.72 119.57, 90.22 75.73, 151.07 5.86 M16.25 168.04 C60.08 116.72, 102.29 68.16, 155.68 6.23 M15.57 166.53 C66.81 106.76, 118.34 47.57, 155.44 7.41 M18.94 172.36 C51.36 128.69, 90.8 85.01, 159.65 10.51 M16.8 171.87 C64.6 117.97, 111.81 63.84, 158.89 9.66 M18.85 175.08 C62.34 123.41, 108.75 72.22, 162.61 12.18 M19.46 175.88 C49.3 141.71, 78.25 106.97, 161.36 11.41 M20.81 178.92 C76.08 116.8, 135.34 50.28, 165.85 14.03 M20 180.35 C63.84 128.61, 108.86 77.29, 165.25 13.24 M20.29 183.4 C75.12 122.99, 127.46 62.29, 170.36 15.26 M21.18 184.9 C52.33 151.7, 82.08 117.44, 169.68 15.24 M25.32 188.47 C74 130.01, 121.71 74.37, 173.98 16.15 M24.5 187.95 C83.45 121.39, 142.73 53.71, 172.88 17.33 M27.74 191.76 C75.98 140.08, 118.82 84.77, 175.37 19.19 M27.46 189.89 C73.4 137.5, 118.38 83.83, 176.2 17.8 M30.19 192.92 C68.97 146.97, 109.95 100.56, 181.34 20.05 M29.9 193.12 C84.16 131.67, 137.1 70.5, 181.22 20.4 M33.77 194.7 C67.69 157.83, 100.41 118.16, 183.53 22.4 M33.76 195.34 C80.67 138.57, 129.99 81.58, 183.58 22.69 M37.2 198.44 C79.75 150.98, 123.1 100.39, 186.2 25.4 M35.5 199.59 C76.31 152.03, 118.38 104.67, 187.15 24.8 M39.35 203.01 C93.35 141.63, 148.17 80.19, 192.44 25.73 M38.75 202 C83.64 148.52, 130.56 96.6, 190.37 27.06 M41.89 204.48 C97.37 141.02, 151.95 78.29, 192.51 30.72 M40.2 205.79 C72.15 166.25, 106.74 128.57, 193.22 30.47 M44.94 208.16 C97.06 145.49, 148.88 84.71, 195.53 31.68 M43.86 207.12 C96.93 146.43, 151.03 85.29, 196.79 32.77 M45.75 212.12 C101.26 145.69, 155.97 83.5, 199.57 35.96 M46.25 211.44 C104.29 142.27, 163.3 72.71, 198.88 35.93 M47.83 212.48 C88.57 167.18, 127.74 120.95, 201.63 37.98 M49.01 214.25 C82.77 174.49, 115.59 134.36, 202.28 38.26 M54.19 215.84 C91.5 167.44, 130.21 122.12, 204.26 41.44 M53.82 216.03 C105.02 153.86, 157.99 92.92, 204.54 40.53 M58.35 216.01 C108.93 159.64, 157.89 98.75, 208.7 44.36 M56.91 218.36 C107.61 160.97, 156.55 103.02, 208.05 43.63 M60.36 220.02 C109.68 158.46, 162.1 102.47, 211.19 47.38 M61.73 218.51 C94.5 182.27, 126.14 145.22, 211.41 47.48 M64.11 219.1 C96.35 181.5, 128.47 145.33, 213.16 49.22 M64.41 220.3 C118.13 162.01, 170.05 101.54, 214.53 49 M68.19 222.76 C117.28 164.99, 168.27 105.1, 217.64 51.7 M68.48 223.05 C106.25 181.23, 142.53 138.66, 216.73 51.33 M70.57 225.5 C120.38 166.16, 170.26 110.74, 217.51 56.33 M72.59 224.81 C130.85 158.32, 187.53 92.4, 218.81 56.12 M76.69 227.64 C126.76 169.04, 177.88 112.48, 220.57 60.97 M75.17 227.03 C114.16 181.8, 153.82 136.87, 220.73 60.95 M80 229 C127.74 174.03, 172.7 118.6, 222.07 65.51 M80.87 227.22 C110.64 191.39, 143.83 153.15, 221.65 64.1 M84 229.57 C128.82 180.59, 169.73 131.3, 223.78 68.05 M82.91 229.1 C120 188.68, 157 145.72, 223.58 68.56 M85.97 229.68 C119.28 193.25, 149.48 158.44, 224.16 73.2 M86.8 231.49 C126.91 185.59, 165.7 140.89, 225.09 71.83 M93.73 232.85 C128.54 188.23, 165.92 147.19, 225.89 75.64 M92.14 231.74 C137.08 178.83, 182.16 127.31, 227.07 76.74 M97.45 233.69 C134.14 190.96, 168.21 151.62, 229.47 82.58 M96.27 232.3 C128.69 195.66, 158.96 159.87, 228.11 81.11 M101.62 232.92 C128.02 202.92, 155.48 172.43, 229.98 86.7 M101.46 233.63 C151.41 175.95, 202.07 116.87, 230.39 85.11 M106.16 234.05 C140.59 192.93, 176.23 153.42, 232.27 87.74 M106.84 232.81 C135.7 199.23, 162.48 168.71, 231.34 89.83 M113.51 234.11 C155.12 186.16, 194.49 136.25, 231.05 94.87 M111.27 234.55 C139.67 198.77, 168.46 166.16, 231.55 96.01 M116.33 233.21 C147.2 200.63, 174.26 162.17, 233.45 99.42 M117.6 234.33 C141.8 204.22, 167.24 174.2, 232.43 100.66 M122.24 236.1 C147.82 200.36, 177.57 170.48, 231.9 105.46 M121.28 234.76 C152.84 198.49, 185.23 163.43, 232.88 106.5 M126.42 233.51 C154.53 204.78, 181.34 171.17, 232.69 110.71 M127.09 233.81 C153.72 202.85, 183.02 169.97, 233.98 111.7 M134.19 233.28 C169.51 192.27, 205.38 150.45, 231.89 116.6 M133.79 232.96 C157.54 203.91, 182.26 176.29, 232.98 118.97 M139.79 232.55 C164.77 202.19, 192.94 173.37, 232.05 121.72 M140.85 230.22 C164.63 203.21, 187.49 174.86, 234.03 123.86 M148.17 229.04 C165.16 209.83, 183.88 187.65, 234.76 131.14 M146.47 230.44 C166.73 206.11, 185.47 182.48, 234.8 129.07 M152.34 229.71 C179.3 197.87, 206.13 171.52, 230.69 136.79 M154.85 226.87 C178.73 198.08, 205.57 168.06, 232.62 137.81 M162.03 224.67 C176.53 207.98, 194.25 188.91, 228.07 145.86 M160.97 225.99 C178.86 202.91, 197.9 182.27, 228.98 147.02 M165.64 227.01 C180.86 211.59, 195.1 193.48, 228.78 155.9 M166.6 226.33 C183.95 205.29, 202 184.4, 227.73 155.52 M177.32 218.13 C197.33 196.43, 213.28 180.31, 226.27 166.21 M179.47 216.66 C195.71 196.13, 213.31 177.39, 224.99 164.26 M192.74 205.79 C202.99 191.91, 214.87 180.47, 224.81 168.68 M193.03 207.07 C205.22 192.92, 218.05 178.8, 224.53 170.17" stroke="#fab005" stroke-width="0.5" fill="none"></path><path d="M148.49 3.9 C160.94 5.44, 173.86 14.2, 184.94 22 C196.02 29.8, 207.17 39.48, 214.96 50.71 C222.76 61.94, 228.61 76.36, 231.73 89.36 C234.85 102.36, 235.18 115.5, 233.69 128.71 C232.19 141.91, 228.66 156.44, 222.77 168.57 C216.88 180.7, 207.98 192.19, 198.35 201.48 C188.73 210.76, 177.05 218.91, 165.02 224.28 C153 229.66, 139.45 232.8, 126.2 233.72 C112.96 234.64, 98.53 233.25, 85.56 229.8 C72.59 226.35, 59.15 220.76, 48.38 213.02 C37.61 205.28, 28.36 194.67, 20.94 183.34 C13.53 172.01, 7.42 158.04, 3.89 145.02 C0.36 132.01, -1.71 118.31, -0.24 105.25 C1.24 92.18, 6.61 78.55, 12.72 66.63 C18.82 54.71, 26.84 43.25, 36.39 33.72 C45.94 24.2, 57.97 15.12, 70.02 9.47 C82.07 3.82, 93.04 -0.18, 108.71 -0.18 C124.37 -0.18, 152.89 6.48, 164.01 9.46 C175.14 12.44, 176.39 15.88, 175.47 17.68 M167.66 12.82 C179.86 17, 193.36 26.32, 202.66 36.08 C211.96 45.84, 218.06 59.3, 223.47 71.38 C228.88 83.45, 234.22 95.54, 235.13 108.54 C236.03 121.55, 232.92 136.28, 228.9 149.39 C224.88 162.49, 218.63 176.05, 211.01 187.17 C203.4 198.28, 194.37 208.66, 183.2 216.09 C172.03 223.52, 157.04 228.69, 144.01 231.75 C130.97 234.82, 118.19 235.86, 104.97 234.46 C91.75 233.06, 76.55 229.2, 64.68 223.36 C52.81 217.51, 43.05 209.1, 33.75 199.38 C24.45 189.65, 14.35 177.6, 8.89 164.99 C3.42 152.39, 1.89 136.97, 0.97 123.76 C0.04 110.55, -0.38 98.23, 3.32 85.74 C7.03 73.25, 14.85 59.93, 23.2 48.81 C31.54 37.69, 42.4 26.5, 53.39 19.03 C64.38 11.55, 76.35 7.09, 89.12 3.94 C101.9 0.79, 116.51 -1.02, 130.06 0.14 C143.62 1.3, 164.22 8.42, 170.45 10.9 C176.68 13.39, 168.53 12.95, 167.44 15.08" stroke="#000000" stroke-width="1" fill="none"></path></g><g transform="translate(256.8094075520821 450.5770670572938) rotate(0 25.5 10)"><text x="25.5" y="14" font-family="Virgil, Segoe UI Emoji" font-size="16px" fill="#000000" text-anchor="middle" style="white-space: pre;" direction="ltr">Design</text></g><g stroke-linecap="round" transform="translate(385.2879231770821 346.6073404947938) rotate(0 117.19482421875 117.19482421875)"><path d="M45.86 23.96 C45.86 23.96, 45.86 23.96, 45.86 23.96 M45.86 23.96 C45.86 23.96, 45.86 23.96, 45.86 23.96 M19.64 60.12 C33.84 44.12, 48.08 26.75, 56.08 18.12 M21.57 57.99 C33.38 42.94, 47.23 28.3, 55.51 18.28 M18.96 68.16 C31.09 54.11, 45.94 35.83, 64.86 12.25 M18.04 69.01 C27.81 55.05, 38.42 42.72, 65.23 13.72 M13.57 82.69 C26.9 63.46, 42.13 42.37, 74.56 7.21 M13.08 80.09 C32.47 57.94, 53.81 34.49, 75.11 9.24 M3.96 94.12 C25.26 73.9, 44.32 51.01, 82.26 5.01 M5.79 94.18 C30.74 65.26, 56.08 35.47, 81.83 5.78 M5.17 102.54 C26.48 76.96, 47.68 51.44, 87.92 3.77 M4.91 101.96 C34.49 68.23, 63.9 33.61, 88.65 4.84 M5 108.77 C32 73.66, 62.2 41.94, 93.09 5.84 M5.16 107.78 C38.23 71.13, 71.03 31.07, 94.16 5.63 M2.47 115.34 C27.59 89.47, 51.14 62.06, 100.83 3.45 M3.69 115.64 C30.19 82.77, 58.17 51.88, 100.25 3.52 M3.74 121.13 C43.77 79.11, 84.45 32.26, 104.38 4.58 M2.12 122.74 C33.34 86.46, 65.39 52.41, 106.89 2.99 M4.78 128.53 C30.16 98.76, 54.07 71.22, 113.06 0.34 M3.26 127.57 C46.9 78.01, 91.37 27.09, 112.03 1.79 M3.38 134.06 C45.62 87.07, 85.77 35.63, 119.62 0.33 M1.13 135.46 C45.45 85.98, 88.27 37.6, 117.07 1.39 M2.98 141.44 C33.54 107.96, 61.39 77.57, 125.48 0.76 M2.93 138.64 C30.4 107.64, 58.84 76.32, 124.12 1.94 M6.8 143.06 C46.67 96.42, 86.79 48.71, 129.4 2.36 M5.19 144.57 C33.8 112.28, 63.18 78.68, 128.77 3.15 M7.03 147.56 C43.53 104.03, 82.96 61.08, 132.72 2.45 M7 148.52 C50.4 98.49, 94.14 47.85, 133.33 3.32 M6.76 152.18 C36.81 121.59, 64.49 89.07, 136.67 4.12 M8.09 152.81 C43.43 112.79, 76.8 73.56, 138.28 3.37 M8.2 156.9 C38.26 121.88, 70.55 87.44, 141.7 6.88 M8.92 156.05 C36.75 123.45, 65.39 91.44, 141.65 4.8 M11.04 162.63 C46.97 120.5, 83.4 77.89, 144.29 4.7 M11.53 161.82 C39.77 129.38, 67.99 96.72, 145.63 7.07 M14.53 165.96 C48.49 123.72, 83.4 84.57, 149.9 7.48 M13.27 164.97 C55.87 116.46, 96.88 69.37, 150.45 7.84 M16.11 168.25 C45.49 133.4, 78.35 95.27, 155.9 9.47 M15.12 168.94 C65.63 112.18, 116.73 54.33, 154.3 9.32 M15.13 173.85 C70.56 109.63, 124.57 49.84, 160.81 6.93 M16.33 174.15 C69.24 113.95, 120.55 55.36, 160.41 8.16 M17.39 176.6 C66.89 122.42, 115.2 68.41, 162.35 9.48 M19.2 177.64 C69.99 116.64, 121.6 57.1, 164.72 9.65 M19.77 180.83 C53.42 144.34, 82.65 111.42, 167.06 13.25 M20.76 180.85 C78.2 115.84, 132.58 52.53, 167.48 12.1 M23.26 182.83 C69.89 131.08, 117.47 79.62, 169.01 14.4 M24 184.07 C54.57 149.7, 84.68 115, 170.91 14.2 M26.53 185.9 C78.69 123.77, 134.44 61.39, 175.97 16.01 M26.34 186.78 C59.68 148.58, 91.29 111.94, 174.4 15.78 M30.77 190.75 C57.23 152.88, 87.4 120.13, 178.19 19.27 M29.7 189.19 C64.37 147.96, 101.16 105.82, 177.73 18.53 M30.4 192.2 C66.96 151.16, 103.88 110.58, 181.91 19.42 M31.27 193.13 C88.03 128.42, 144.9 64.16, 180.35 20.91 M34.96 197.03 C83.52 139.49, 131.99 83.18, 185.14 24.37 M33.47 196.77 C91.7 129.28, 150.3 61.86, 184.57 22.25 M36.1 200.51 C71.03 158.6, 105.75 118.08, 187.94 26.26 M36.59 199.29 C68.68 163.11, 98.75 127.31, 188.81 24.11 M38.87 204.59 C88.08 147.99, 136.52 89.58, 192.11 26.95 M37.8 202.79 C83.94 151.33, 128.97 98.38, 192.53 25.84 M41.75 205.55 C96.58 142.22, 150.22 80.18, 193.68 30.37 M40.1 205.83 C92.94 147.92, 142.13 91.14, 195.49 29.71 M45.36 207.08 C87.02 156.85, 130.9 106.01, 199.56 30.61 M44.11 208.88 C103.1 143.58, 160.72 76.85, 199.25 31.48 M49.03 209.13 C109.91 139.82, 170.28 70.74, 202.61 35.95 M48.1 210.75 C107.04 141.24, 166.39 74.39, 200.81 35.06 M51.18 212.1 C89.83 169.1, 129.17 125.09, 202.14 38.87 M51.84 213.45 C110.35 143.95, 169.58 77.19, 203.16 38.5 M54.6 213.03 C103.73 154.54, 155.85 97.06, 206.68 42.77 M55.08 214.24 C100.61 159.9, 147.1 105.77, 206.18 41.23 M59.01 218.88 C105.88 159.99, 158.87 102.43, 208.76 44.68 M58.69 217.91 C94.8 173.27, 133.54 129.02, 208.51 44.52 M59.96 217.84 C119.56 153.34, 176.49 88.17, 209.09 46.6 M61.95 219.16 C100.41 173.3, 141.16 128.46, 209.86 48.34 M64.63 220.61 C116.57 163.39, 168.04 103.99, 214.44 49.18 M64.7 222.5 C100.5 181.69, 137.05 140.36, 213.95 50.87 M66.86 224.87 C111.98 171.75, 159.2 120.05, 215.05 52.42 M68.09 224.53 C108.31 176.46, 149.95 128.3, 216.25 53.47 M69.8 225.83 C129.52 159.72, 187.1 93.08, 219.88 55.78 M71.58 227.08 C124.72 163.59, 180 100.24, 218.71 56.47 M74.57 228.52 C117.03 180, 159.11 130.87, 220.2 62.36 M75.41 228.04 C107.61 191.65, 138.53 156.59, 220.93 60.69 M80.29 229.54 C118.68 180.6, 159.85 137.1, 221.77 65.59 M78.91 229.58 C111.06 191.24, 142.9 154.52, 223.08 63.55 M85.91 230.41 C128.42 178.81, 173.35 126.73, 223.41 69.09 M84.15 230.02 C114.43 196.52, 142.65 164.51, 223.49 69.47 M89.4 229.88 C131.14 184.08, 173.49 134.9, 225.51 72.29 M88.35 230.77 C134.65 178.04, 180.82 124.47, 225.56 72.7 M91.63 231.96 C139.98 176.2, 188.71 117.43, 227.56 79.25 M92.91 231.1 C123.61 196.23, 155.39 160.43, 226.58 77.34 M98.69 231.61 C132.98 190.52, 171.92 148.72, 227.33 82.36 M98.64 232.56 C146.88 177.29, 195.84 120.61, 227.61 82.15 M102.15 232.7 C129.07 202.93, 153.86 175.49, 231.36 87.26 M102.26 234.25 C145.27 183.53, 186.5 136.3, 229.34 86.67 M105.72 233.61 C144.04 190.99, 180.51 148.39, 229.77 90.31 M107.06 233.71 C153.72 180.73, 201.77 125.37, 231.81 91.08 M112.88 234.69 C133.52 204.59, 158.92 177.24, 231.79 96.34 M111.66 234.02 C159.12 179.53, 205.43 126.78, 232.64 96.11 M117.3 237.93 C153.99 189.15, 196.85 143.39, 231.82 102.68 M116.72 236.2 C157.18 187.12, 198.45 139.09, 232.94 101.8 M120.75 234.31 C158.83 193.49, 194.2 148.58, 232.69 105.52 M120.86 235.56 C160.87 191.91, 198.1 147.8, 232.71 106.75 M127.84 235.92 C159.49 197.56, 191.67 159.83, 232.27 115.56 M127.43 234.76 C151.38 208.43, 175.98 179.92, 233.47 112.74 M133.23 234.38 C167.51 193.79, 201.38 152.22, 232.14 119.35 M133.87 233.14 C172.38 189.3, 210.05 146.13, 233 118.99 M138.27 234.15 C176.85 193.1, 209.33 148.72, 232.21 126.95 M140.35 232.98 C166.15 201.56, 194.63 170.61, 232.07 124.81 M145.6 231.69 C164.63 208.74, 183.79 190.47, 231.31 132.81 M146.44 231.59 C177.83 193.29, 211.43 156.97, 233 131.29 M153.79 227.08 C175.34 206.87, 192.58 181.8, 233.19 140.08 M153.86 227.89 C169.77 210.17, 186.41 191.82, 231.79 138.73 M164.03 223.66 C185.95 199.65, 202.96 175.74, 233.08 143.81 M163.13 222.96 C190.42 192.66, 218.02 160.57, 232.76 142.62 M174.03 219.88 C191.11 198.41, 207.74 181.13, 228.52 155.59 M173.65 218.85 C194.09 194.67, 214.55 171.27, 229.37 155.29 M185.29 211.7 C198.49 199.01, 212.84 183.05, 225.6 168.04 M182.96 211.9 C191.32 203.79, 200.94 193.04, 224.56 167.32" stroke="#4c6ef5" stroke-width="0.5" fill="none"></path><path d="M160.16 8.29 C172.87 11.31, 186.13 20.24, 196.36 29.35 C206.6 38.45, 215.42 51.08, 221.55 62.92 C227.69 74.76, 231.43 87.24, 233.17 100.38 C234.9 113.53, 234.8 128.6, 231.97 141.78 C229.13 154.96, 223.27 168.13, 216.16 179.45 C209.04 190.76, 199.65 201.53, 189.29 209.67 C178.93 217.81, 166.63 224.2, 154 228.29 C141.38 232.38, 127.01 234.47, 113.54 234.21 C100.06 233.95, 85.5 231.65, 73.16 226.73 C60.83 221.81, 49.39 213.92, 39.54 204.7 C29.69 195.49, 20.6 183.31, 14.06 171.46 C7.52 159.6, 2.04 146.57, 0.28 133.57 C-1.47 120.56, 0.47 106.39, 3.52 93.42 C6.57 80.45, 11.55 67.31, 18.59 55.75 C25.62 44.2, 35.36 32.5, 45.75 24.08 C56.14 15.66, 68.22 9.26, 80.91 5.25 C93.6 1.24, 106.38 -1.45, 121.89 0.03 C137.4 1.51, 163.52 10.06, 173.97 14.12 C184.41 18.18, 185.34 22.49, 184.57 24.38 M66.54 11.73 C77.21 4.62, 90.56 3.5, 103.89 1.94 C117.21 0.39, 133.5 -0.5, 146.5 2.4 C159.51 5.3, 171.11 11.58, 181.92 19.33 C192.73 27.08, 203.2 37.73, 211.35 48.89 C219.5 60.04, 227.18 73.4, 230.81 86.26 C234.44 99.12, 234.13 112.82, 233.15 126.04 C232.16 139.27, 230.27 153.34, 224.89 165.61 C219.52 177.89, 210.09 189.99, 200.92 199.68 C191.75 209.36, 181.95 217.93, 169.87 223.72 C157.8 229.51, 141.85 233.39, 128.47 234.42 C115.09 235.46, 102.62 233.01, 89.59 229.91 C76.56 226.8, 61.42 222.93, 50.3 215.79 C39.18 208.66, 30.28 198.25, 22.86 187.09 C15.44 175.94, 9.59 161.76, 5.78 148.85 C1.97 135.94, -0.75 122.96, -0.02 109.65 C0.71 96.34, 4.44 81.5, 10.14 68.99 C15.85 56.48, 25.04 43.96, 34.21 34.58 C43.38 25.21, 59.73 15.99, 65.17 12.72 C70.6 9.46, 65.88 13.43, 66.82 14.99" stroke="#000000" stroke-width="1" fill="none"></path></g><g transform="translate(460.9827473958321 453.8021647135438) rotate(0 41.5 10)"><text x="41.5" y="14" font-family="Virgil, Segoe UI Emoji" font-size="16px" fill="#000000" text-anchor="middle" style="white-space: pre;" direction="ltr">Engineering</text></g><g stroke-linecap="round" transform="translate(277.5828450520821 524.4833170572938) rotate(0 117.19482421875 117.19482421875)"><path d="M20.34 52.13 C20.34 52.13, 20.34 52.13, 20.34 52.13 M20.34 52.13 C20.34 52.13, 20.34 52.13, 20.34 52.13 M13.15 66.72 C27.21 49.63, 40.82 34.56, 51.18 26.26 M13.63 64.76 C24.1 54, 33.47 42.43, 49.54 25.35 M8.11 80.2 C27.08 56.82, 44.59 34.03, 57.82 21.14 M7.84 77.58 C24.78 57.44, 43.31 37.23, 58.73 20.62 M3.05 91.01 C25.95 59.96, 51.14 31.83, 68.63 13.73 M2.82 89.58 C16.72 74.51, 30.5 59.19, 67.62 14.56 M3.21 97.03 C24.6 72.46, 46.32 46.17, 78.29 10.63 M3.52 95.55 C26.59 68.52, 49.62 41.79, 77.3 10.38 M3.12 103.29 C35.55 64.27, 69.39 23.32, 88.33 5.46 M3.5 102.27 C24.77 76.63, 46.83 51.38, 87.56 5.6 M1.06 108.07 C28.65 78.74, 56.47 46.17, 94.43 5.73 M3.4 109.55 C20.81 86.67, 40.87 65.23, 92.31 5.83 M3.75 116.75 C36.47 79.51, 67.15 41.71, 98.24 5.37 M1.78 115.03 C35.57 77.04, 68.77 38.14, 99.39 4.3 M2.97 123.21 C25.15 97.62, 43.31 73.62, 104.13 3.73 M1.72 120.51 C28.35 93.17, 52.56 64.77, 103.43 3.75 M4.2 127.19 C42.1 82.05, 81.1 34.42, 111.81 2.41 M1.57 128.28 C38.99 85.67, 75.73 42.57, 110.5 4.18 M5.21 133.43 C43.46 83.89, 87.92 35.32, 116.92 2.6 M3.59 131.12 C27.94 105.16, 51.44 76.88, 114.82 3.2 M6.1 136.56 C30.93 109.08, 56.7 78.13, 119.65 2.53 M4.04 136.21 C41.25 97, 76.52 57.71, 121.4 2.32 M6.5 140.69 C48.94 89.55, 94.22 40.89, 125.43 2.76 M6.47 141.6 C35.16 108.03, 63.15 76.68, 126.74 3.28 M7.58 144.32 C41.35 108.09, 71.35 72.07, 132.8 4.38 M7.77 146.07 C32.4 116.66, 58.86 87.05, 130.88 3.11 M9.97 151.66 C55.44 100.23, 97.72 49.29, 135.43 4.83 M10.15 149.44 C39.51 114.91, 70.19 80.59, 135.39 4.91 M9.1 156.08 C62.37 99.35, 111.8 41.81, 138.68 7.31 M10.57 154.87 C62.82 98.69, 112.55 39.93, 140.07 6.2 M13.02 159.37 C51.82 113.38, 86.31 69.54, 143.17 7.51 M12.62 159.17 C40.02 126.36, 67.44 94.72, 144.32 6.71 M14.08 163.45 C66.33 102.61, 117.98 41.28, 149.74 6.16 M14.12 163.25 C62 108.41, 109.68 53.71, 149.07 7.23 M12.57 171.12 C61.04 114.66, 109.44 61.35, 155.13 7.86 M13.09 170.17 C43.07 136.73, 71.74 103.22, 154.72 8.83 M16.59 172.65 C68.14 116.82, 117.75 56.38, 159.38 8.02 M15.79 173.77 C66.08 115.87, 115.52 58.13, 158.65 9.05 M17.7 177.25 C58.88 133.11, 96.06 86.22, 163.74 11.05 M17.38 177.13 C65.11 120.45, 115.09 63.93, 161.95 10.29 M22.22 178.48 C59.27 137.62, 96.4 94.4, 168.42 9.82 M21.07 179.78 C75.81 116.23, 131.44 52.54, 167.15 10.62 M22.23 182.34 C58.15 145.26, 89.33 105.85, 168.4 12.7 M23.05 183.92 C71.95 126.31, 121.07 69.05, 170.62 14.25 M24.22 186.62 C81.68 122.67, 137.65 59.31, 172.33 15.18 M25.73 186.81 C82.73 120.87, 139.89 54.19, 172.91 16.15 M26.34 188.61 C79.66 126.7, 135.96 64.13, 175.83 19.01 M27.01 189.17 C58.34 152.68, 90.82 116.7, 176.24 18.48 M29.92 192.3 C74.09 144.97, 116.22 95.41, 181.06 20.46 M30.15 192.98 C74.04 143.73, 115.4 94.53, 180.03 21.39 M33.1 195.94 C65.93 155.95, 101.96 117.2, 185 24.02 M32.38 196.58 C68.66 154.86, 105.16 112.46, 182.94 23.8 M34.88 200 C71.72 156.5, 111.26 112.75, 184.9 25.39 M35.71 200.15 C85.36 141.65, 138.3 80.85, 186.61 25.98 M39.62 204.17 C95.26 135.98, 149.72 73.05, 190.1 27.72 M38 203.43 C86.82 148.07, 135.84 91.82, 190.65 27.94 M42.04 204.09 C78.32 161.86, 116.41 117.92, 193.57 28.51 M41.7 204.9 C97.98 142.57, 153.99 78.89, 193.04 30.58 M43.32 207.08 C91.09 151.94, 141.1 96.85, 198.1 31.67 M44.58 208.24 C77.71 169.81, 110 133.09, 197.66 31.67 M48.18 209.66 C100.86 149.48, 155.61 88.87, 201.34 34.36 M47.09 209.05 C96.69 152.91, 145.89 96.54, 199.47 33.83 M49.29 211.91 C83.32 174.65, 115.82 137.63, 204.35 36.46 M50.27 211.68 C102.25 151.19, 154.47 91.25, 203.23 37.8 M52.66 213.29 C99.81 163.13, 147.87 110.85, 205.45 42.12 M54.22 214.03 C103.89 156.68, 155.49 98.77, 205.56 41.42 M56.06 216.5 C88.46 180.42, 118.89 144.68, 206.78 44.32 M56.77 217.29 C114.85 148.46, 173.1 81.75, 208.31 43.63 M61.5 219.2 C119.03 156.01, 173.04 89.56, 209.43 48.68 M61 218.41 C102.15 172.54, 141.58 125.13, 210.37 47.05 M63.75 221.22 C95.11 185.89, 128.03 148.33, 211.28 50.06 M63.85 221.56 C104.23 174.72, 143.15 130.03, 212.37 50.63 M66.32 223.07 C116.6 168.43, 161.45 113.46, 214.3 54.23 M66.96 223.8 C122.33 159.1, 176.77 96.96, 215.49 53.37 M69.96 226.41 C124.95 164.6, 181.21 100.94, 218.29 58.49 M70.42 226.51 C122.77 164.97, 174.77 104.26, 216.97 57.97 M75.67 228.33 C131.22 163.89, 185.59 101.2, 217.91 59.68 M75.73 227.19 C132.24 162.16, 189.05 95.64, 219.24 60.83 M78.58 226.64 C135.37 164.13, 190.32 99.54, 220.5 65.79 M79.89 227.2 C121.06 180.19, 162.36 132.66, 221.94 64.38 M84.2 228.96 C128.39 175.76, 172.43 124.57, 222.45 65.91 M84.67 227.84 C125.31 181.38, 165.21 135.17, 224.23 66.91 M87.68 230.6 C117.59 195.69, 148.88 159.21, 226.44 70.47 M88.05 229.86 C136.99 173.7, 184.81 118.99, 226.43 72.42 M92.17 232.12 C143.97 170.98, 196.63 114.82, 225.67 76.06 M92.31 230.94 C138.36 179.95, 182.99 127.53, 226.74 77.01 M96.29 233.03 C145.61 178.83, 191.55 122.28, 229.94 79.79 M96.72 232.5 C132.06 190.15, 167.85 148.44, 227.75 80.74 M103.13 231.48 C140.49 190.15, 180.98 144.6, 230.24 85.08 M103.05 231.34 C150.08 176.44, 197.33 121.3, 229.6 85.4 M107.08 232.34 C150 183.63, 190.66 135.43, 233.07 90.01 M105.94 234.11 C137.36 198.18, 170.52 160.69, 230.4 90.71 M109.54 232.72 C148.89 188.42, 187.87 144.77, 234.12 93.78 M111.18 233.88 C158.59 180.84, 206.28 126.2, 232.8 94.52 M114.77 232.34 C147.83 195.65, 175.77 163.78, 235.23 100.59 M117.37 233.51 C155.42 187.73, 194.24 143.68, 234.43 99.11 M123.09 234.79 C165.78 182.81, 209.58 132.27, 235.3 103.62 M123.21 233.87 C162.04 189.05, 199.76 144.59, 234.57 104.35 M128.11 231.67 C153.82 200.62, 178.94 174.98, 232.79 111.67 M128.8 232.83 C152.66 205.49, 174.7 179.46, 234.74 111.16 M133.4 232.44 C165.76 192.71, 198.51 156.94, 235.71 117.55 M134.41 232.14 C165.98 196.56, 197.81 158.87, 234.8 116.87 M141.1 233.3 C175.04 187.63, 211.93 149.48, 233.62 124.17 M139.09 231.19 C161.62 206.38, 182.39 180.06, 232.91 124.31 M145.83 229.6 C169.6 206.37, 190.72 178.65, 234.23 129.96 M144.71 230.33 C178.3 193.79, 210.3 156, 232.3 130.07 M152.73 231.63 C182.72 192.74, 216.48 158.94, 230.68 139.2 M152.01 229.69 C169.58 211.21, 184.7 192.66, 232.51 137.84 M162.68 225.35 C175.94 205.64, 193.93 187.54, 233.53 144.68 M159.89 226.77 C182.53 201.52, 204.22 175.38, 231.54 143.97 M171.67 219.7 C193.04 196.39, 211.76 173.12, 227.42 157.09 M170.89 220.71 C192.4 195.83, 213.34 172.27, 226.49 155.82 M180.72 217.99 C196.36 200.37, 211.52 182.87, 219.47 168.79 M179.12 216.64 C192.45 202.47, 204.47 190.08, 222.1 168.45 M185.84 214.31 C193.86 204.72, 201.85 198.94, 216.22 181.32 M188.28 212.98 C194.65 204.54, 202.16 195.38, 215.67 181.08" stroke="#fa5252" stroke-width="0.5" fill="none"></path><path d="M84.68 4.05 C96.64 -1.15, 112.06 0.09, 125.26 0.95 C138.46 1.81, 151.75 3.97, 163.88 9.22 C176.01 14.46, 188.41 23.1, 198.04 32.41 C207.68 41.72, 215.76 53.13, 221.68 65.07 C227.61 77.02, 231.92 90.89, 233.6 104.08 C235.28 117.28, 234.8 131.27, 231.75 144.23 C228.71 157.18, 222.85 170.46, 215.35 181.81 C207.85 193.16, 197.45 204.28, 186.76 212.31 C176.07 220.34, 163.96 226.49, 151.22 230.01 C138.49 233.53, 123.96 234.31, 110.35 233.43 C96.74 232.55, 81.72 229.84, 69.57 224.73 C57.42 219.63, 46.87 211.89, 37.45 202.79 C28.03 193.69, 19.06 182.32, 13.06 170.13 C7.06 157.94, 3.09 143.14, 1.44 129.67 C-0.21 116.2, 0.05 102.19, 3.15 89.31 C6.26 76.44, 12.71 63.59, 20.08 52.43 C27.45 41.27, 36.17 30.44, 47.37 22.33 C58.57 14.22, 79.72 6.56, 87.27 3.78 C94.83 1, 92.29 3.92, 92.68 5.65 M143.03 4.42 C155.85 5.39, 171.23 11.12, 182.44 18.12 C193.66 25.11, 202.59 35.41, 210.32 46.39 C218.04 57.38, 224.64 70.88, 228.78 84.03 C232.92 97.17, 235.98 111.89, 235.17 125.25 C234.36 138.6, 229.24 151.99, 223.91 164.17 C218.58 176.34, 212.27 188.48, 203.18 198.28 C194.08 208.07, 181.16 216.86, 169.33 222.94 C157.51 229.03, 145.57 233.28, 132.24 234.78 C118.9 236.28, 102.42 235.38, 89.32 231.95 C76.23 228.52, 64.89 221.39, 53.65 214.19 C42.42 206.99, 29.94 199.11, 21.9 188.73 C13.87 178.36, 8.84 165.1, 5.43 151.95 C2.02 138.81, 0.79 123.27, 1.42 109.87 C2.05 96.46, 4.14 83.79, 9.22 71.53 C14.29 59.27, 22.43 46.36, 31.86 36.32 C41.29 26.29, 53.97 17.09, 65.79 11.32 C77.62 5.54, 89.75 2.86, 102.8 1.66 C115.84 0.46, 137.3 3.56, 144.06 4.13 C150.83 4.71, 143.84 3.49, 143.39 5.11" stroke="#000000" stroke-width="1" fill="none"></path></g><g transform="translate(362.7776692708321 631.6781412760438) rotate(0 32 10)"><text x="32" y="14" font-family="Virgil, Segoe UI Emoji" font-size="16px" fill="#000000" text-anchor="middle" style="white-space: pre;" direction="ltr">Product</text></g><g stroke-linecap="round" transform="translate(316.4446614583321 506.6244303385438) rotate(0 78.5 32)"><path d="M17.54 -1.59 L146.85 -0.92 L152.49 5.47 L155.22 13.99 L157.46 54.83 L149.71 62.04 L141.4 63.18 L9.27 62.92 L2.48 58.98 L-0.49 52.66 L0.04 12.03 L5.77 5.56 L9.86 1.7 L14.53 -1.71" stroke="none" stroke-width="0" fill="#000000"></path><path d="M16 0 M16 0 C56.06 0.59, 94.44 -2.27, 141 0 M16 0 C52.27 -0.88, 88 -1.04, 141 0 M141 0 C151.62 1.84, 157.92 3.52, 157 16 M141 0 C149.44 1.06, 158.14 5.12, 157 16 M157 16 C155.84 22.36, 156.36 29.96, 157 48 M157 16 C156.57 27.35, 157.62 38.28, 157 48 M157 48 C156.2 60.12, 153.37 65.61, 141 64 M157 48 C155.46 59.71, 152.77 62.45, 141 64 M141 64 C116.35 66.02, 88.16 63.98, 16 64 M141 64 C99.37 62.71, 55.54 64.09, 16 64 M16 64 C5.33 65.35, -0.18 58.28, 0 48 M16 64 C5.31 63, 1.99 60.53, 0 48 M0 48 C-1.74 38.67, -0.9 26.32, 0 16 M0 48 C0.41 37.56, 1.02 27.36, 0 16 M0 16 C-0.93 6.76, 6.7 -0.94, 16 0 M0 16 C2.1 4.21, 6.76 -1.93, 16 0" stroke="#000000" stroke-width="1" fill="none"></path></g><g transform="translate(332.9446614583321 529.6244303385438) rotate(0 62 9)"><text x="62" y="14" font-family="Cascadia, Segoe UI Emoji" font-size="16px" fill="#ffffff" text-anchor="middle" style="white-space: pre;" direction="ltr">Design System</text></g><g stroke-linecap="round" transform="translate(120.52343749999909 921.4961751302108) rotate(0 276 38)"><path d="M5.06 4.4 C5.06 4.4, 5.06 4.4, 5.06 4.4 M5.06 4.4 C5.06 4.4, 5.06 4.4, 5.06 4.4 M3.48 12.3 C6.46 8.58, 10.83 6.19, 12.01 2.49 M3.48 12.3 C5.82 9.05, 9.92 6.04, 12.01 2.49 M1.91 20.21 C6.7 12.51, 13.67 6.48, 18.97 0.59 M1.91 20.21 C6.67 14.5, 12.94 9.18, 18.97 0.59 M1.65 26.61 C7.7 20.79, 10.14 17.18, 24.61 0.19 M1.65 26.61 C9.77 16.65, 19.02 8.06, 24.61 0.19 M2.04 32.25 C13.92 20.69, 23.12 8.64, 29.6 0.55 M2.04 32.25 C12.85 20.71, 22.34 7.1, 29.6 0.55 M2.44 37.89 C16.92 21.88, 27.83 8.68, 35.24 0.16 M2.44 37.89 C11.65 25.81, 22.92 14.85, 35.24 0.16 M2.18 44.29 C16.18 27.41, 31.92 13.81, 40.23 0.52 M2.18 44.29 C13.63 30.8, 26.27 15.71, 40.23 0.52 M2.57 49.94 C16.62 33.85, 31.22 17.83, 45.87 0.12 M2.57 49.94 C12.71 37.94, 23.66 25.03, 45.87 0.12 M2.31 56.33 C13.69 44.38, 22.18 33.08, 50.86 0.48 M2.31 56.33 C13.94 41.96, 26.27 26.98, 50.86 0.48 M2.7 61.98 C15.76 45.51, 28.64 33.49, 56.5 0.09 M2.7 61.98 C22.12 40.16, 42.34 16.31, 56.5 0.09 M3.1 67.62 C20.11 51.69, 35.6 32.78, 61.49 0.45 M3.1 67.62 C19.95 48.65, 37.14 29.64, 61.49 0.45 M6.12 70.24 C31.63 41.18, 55.67 12.41, 67.13 0.06 M6.12 70.24 C21.88 52.19, 36.01 36.33, 67.13 0.06 M8.48 73.62 C22.8 58.12, 36.91 42.93, 72.12 0.42 M8.48 73.62 C24.45 54.91, 41.06 37.42, 72.12 0.42 M12.16 75.49 C28.06 55.79, 47.3 35.2, 77.76 0.02 M12.16 75.49 C34.32 50.21, 55.66 24.61, 77.76 0.02 M15.83 77.36 C33.12 60.84, 46.7 42.77, 82.75 0.38 M15.83 77.36 C39.52 49.1, 63.97 22.65, 82.75 0.38 M21.47 76.97 C39.04 57, 55.99 35.95, 88.39 -0.01 M21.47 76.97 C42.93 52.58, 64.4 28.48, 88.39 -0.01 M26.46 77.33 C42.03 61.22, 54.53 48.27, 93.38 0.35 M26.46 77.33 C48.24 52.11, 71.49 26.06, 93.38 0.35 M32.1 76.93 C49.57 56.24, 69.99 32.06, 99.02 -0.05 M32.1 76.93 C54.29 51.67, 75.76 25.72, 99.02 -0.05 M37.09 77.29 C55.3 56.79, 73.03 33.15, 104.01 0.31 M37.09 77.29 C53.14 58.82, 69.82 37.64, 104.01 0.31 M42.73 76.9 C67.06 52.73, 87.98 23.87, 109.65 -0.08 M42.73 76.9 C66 48.7, 91.32 21.42, 109.65 -0.08 M47.72 77.26 C62.8 60.08, 73.66 43.53, 114.64 0.28 M47.72 77.26 C72.64 48.47, 97.04 20.38, 114.64 0.28 M53.36 76.86 C74.57 51.69, 99.18 23.83, 119.63 0.64 M53.36 76.86 C68.29 58.66, 83.42 41.91, 119.63 0.64 M58.35 77.22 C77.3 53.9, 101.14 27.34, 125.27 0.24 M58.35 77.22 C75.4 57.74, 90.74 38, 125.27 0.24 M63.99 76.83 C82.53 55.63, 101.8 30.96, 130.26 0.6 M63.99 76.83 C79.58 60.42, 96.01 41.47, 130.26 0.6 M68.98 77.19 C90.23 49.05, 112.9 24.48, 135.9 0.21 M68.98 77.19 C84.57 60.29, 100.04 42.68, 135.9 0.21 M74.62 76.79 C98.41 52.74, 119.2 24.9, 140.89 0.57 M74.62 76.79 C94.37 55.45, 111.94 33.75, 140.89 0.57 M79.61 77.15 C94.72 60.05, 111.69 40.93, 146.53 0.17 M79.61 77.15 C104.79 47.77, 129.53 19.11, 146.53 0.17 M85.25 76.76 C103.54 54.27, 123.19 32.72, 151.52 0.53 M85.25 76.76 C110.34 49.53, 133.61 21.82, 151.52 0.53 M90.24 77.12 C110.38 51.12, 135.67 23.33, 157.16 0.14 M90.24 77.12 C111.04 53.2, 130.91 29.19, 157.16 0.14 M95.88 76.73 C112.12 58.38, 132.49 35.3, 162.15 0.5 M95.88 76.73 C113.17 54.9, 132.28 35.93, 162.15 0.5 M100.87 77.09 C116.23 61.84, 131.12 45.04, 167.79 0.11 M100.87 77.09 C128.71 45.25, 153.18 16.02, 167.79 0.11 M105.86 77.45 C125.37 53.26, 144.66 32.7, 172.78 0.47 M105.86 77.45 C125.55 55.13, 145 32.36, 172.78 0.47 M111.5 77.05 C126.97 60.04, 139.74 47.8, 178.42 0.07 M111.5 77.05 C134.92 50.04, 158.43 23.39, 178.42 0.07 M116.49 77.41 C137.81 53.53, 157.53 29.46, 183.41 0.43 M116.49 77.41 C137.88 52.57, 159.61 28.69, 183.41 0.43 M122.13 77.02 C141.36 55.45, 158.71 35.85, 189.05 0.04 M122.13 77.02 C137.64 58.79, 151.78 42.51, 189.05 0.04 M127.12 77.38 C152.26 50.94, 174.65 20.74, 194.04 0.4 M127.12 77.38 C149.01 53.12, 170.99 26.94, 194.04 0.4 M132.76 76.98 C159.07 44.94, 184.34 18.31, 199.68 0 M132.76 76.98 C148.6 57.26, 164.95 38.82, 199.68 0 M137.75 77.34 C162.27 50.18, 185.64 24.28, 204.67 0.36 M137.75 77.34 C158.61 52.72, 178.81 28.74, 204.67 0.36 M143.39 76.95 C164.36 52.15, 182.2 32.45, 209.65 0.72 M143.39 76.95 C166.91 50.11, 188.87 23.39, 209.65 0.72 M148.38 77.31 C168.7 51.41, 192.37 23.34, 215.3 0.33 M148.38 77.31 C170.28 52.51, 192.8 26.31, 215.3 0.33 M154.02 76.91 C178.51 49.02, 205.7 18.82, 220.28 0.69 M154.02 76.91 C168.95 58.41, 184.55 39.36, 220.28 0.69 M159.01 77.27 C176.85 57.57, 196.6 33.47, 225.93 0.29 M159.01 77.27 C179.7 55.57, 199.53 32.61, 225.93 0.29 M164.65 76.88 C191.47 45.36, 218.6 16.24, 230.91 0.65 M164.65 76.88 C188.66 48.73, 214.56 19.95, 230.91 0.65 M169.64 77.24 C195.46 49.01, 221.86 18.23, 236.56 0.26 M169.64 77.24 C192.13 52.15, 212.67 25.74, 236.56 0.26 M175.28 76.84 C198.06 49.21, 217.21 24.06, 241.54 0.62 M175.28 76.84 C197.09 50.94, 219.22 25.57, 241.54 0.62 M180.27 77.2 C196.62 56.42, 214.38 39.22, 247.19 0.22 M180.27 77.2 C195.68 58.48, 212.12 39.99, 247.19 0.22 M185.91 76.81 C207.62 51.19, 231.82 22.65, 252.17 0.58 M185.91 76.81 C204.03 56.41, 222.83 33.41, 252.17 0.58 M190.9 77.17 C209.57 55.02, 231.99 31, 257.82 0.19 M190.9 77.17 C208.98 57.89, 227.17 37.36, 257.82 0.19 M195.89 77.53 C211.74 58.79, 226.84 41.37, 262.8 0.55 M195.89 77.53 C216.33 55.56, 234.4 34.58, 262.8 0.55 M201.53 77.14 C222.89 54.38, 243.22 30.16, 268.45 0.16 M201.53 77.14 C219.82 55.72, 239.68 32.01, 268.45 0.16 M206.52 77.5 C231.66 49.73, 257.92 20.27, 273.43 0.52 M206.52 77.5 C232.71 46.34, 257.8 17.3, 273.43 0.52 M212.16 77.1 C230.17 53.42, 251.88 33.31, 279.08 0.12 M212.16 77.1 C227.43 58.54, 245.06 38.72, 279.08 0.12 M217.15 77.46 C239.69 49.24, 265.15 21.42, 284.06 0.48 M217.15 77.46 C242.65 48.35, 266.26 21.36, 284.06 0.48 M222.79 77.07 C241.41 57.94, 257.73 37.35, 289.71 0.09 M222.79 77.07 C243.27 52.7, 264.48 28.08, 289.71 0.09 M227.78 77.43 C250.89 48.34, 273.49 24.54, 294.69 0.45 M227.78 77.43 C252.19 49.06, 277.56 20.92, 294.69 0.45 M233.42 77.03 C249.3 57.13, 268.11 36.69, 300.34 0.05 M233.42 77.03 C255.92 50.58, 277.6 24.88, 300.34 0.05 M238.41 77.39 C262.34 51.25, 286.76 23.7, 305.32 0.41 M238.41 77.39 C256.03 57.99, 272.22 38.67, 305.32 0.41 M244.05 77 C262.79 59.24, 277.94 38.41, 310.31 0.77 M244.05 77 C267.07 49.34, 292.46 20.95, 310.31 0.77 M249.04 77.36 C274.82 46.64, 298.69 15.17, 315.95 0.38 M249.04 77.36 C266.49 59.04, 282.6 39.99, 315.95 0.38 M254.68 76.96 C276.44 51.4, 297.17 26.03, 320.94 0.74 M254.68 76.96 C278.06 49.86, 300.27 25.78, 320.94 0.74 M259.67 77.32 C275.13 60.41, 289.85 41.61, 326.58 0.34 M259.67 77.32 C281.02 51.47, 302.25 28.09, 326.58 0.34 M265.31 76.93 C283.51 56.69, 300.24 36.2, 331.57 0.7 M265.31 76.93 C280 60.39, 293.41 42.44, 331.57 0.7 M270.3 77.29 C288.4 56.71, 305.5 35.51, 337.21 0.31 M270.3 77.29 C296.07 48.42, 321.14 17.18, 337.21 0.31 M275.94 76.89 C296.13 53.66, 315.96 32.53, 342.2 0.67 M275.94 76.89 C290.81 60.26, 306.68 42.99, 342.2 0.67 M280.93 77.25 C303.01 53.04, 324.19 26.63, 347.84 0.27 M280.93 77.25 C302.01 52.28, 324.64 27.78, 347.84 0.27 M286.57 76.86 C303.78 59.46, 319.57 41.09, 352.83 0.63 M286.57 76.86 C299.24 61.24, 313.29 45.84, 352.83 0.63 M291.56 77.22 C304.57 60.66, 319.96 44.31, 358.47 0.24 M291.56 77.22 C312.81 53.92, 333.9 29.19, 358.47 0.24 M296.54 77.58 C323.76 47.37, 349.72 15.44, 363.46 0.6 M296.54 77.58 C315.26 54.91, 335.25 33.23, 363.46 0.6 M302.19 77.19 C325.66 50.49, 344.11 29.03, 369.1 0.2 M302.19 77.19 C325.73 50.82, 349.45 23.81, 369.1 0.2 M307.17 77.55 C329.65 55.22, 348.37 29.73, 374.09 0.56 M307.17 77.55 C321.02 61.1, 335.67 44.19, 374.09 0.56 M312.82 77.15 C333.61 52.8, 351.44 32.06, 379.73 0.17 M312.82 77.15 C333.8 53.73, 355.02 30.42, 379.73 0.17 M317.8 77.51 C336.42 54.44, 356.35 31.08, 384.72 0.53 M317.8 77.51 C331.72 62.49, 344.12 46.8, 384.72 0.53 M323.45 77.12 C345.17 50.82, 364.47 29.13, 390.36 0.14 M323.45 77.12 C339.96 57.9, 357.07 37.95, 390.36 0.14 M328.43 77.48 C350.55 51.5, 371.98 26.69, 395.35 0.5 M328.43 77.48 C347.67 56.45, 367.78 34.75, 395.35 0.5 M334.08 77.08 C350.66 59.05, 362.75 43.83, 400.99 0.1 M334.08 77.08 C359.98 48.44, 383.74 18.92, 400.99 0.1 M339.06 77.44 C360.75 50.34, 383.33 26.69, 405.98 0.46 M339.06 77.44 C362.58 50.29, 388.07 22.48, 405.98 0.46 M344.71 77.05 C359.31 57.83, 377.58 40.72, 410.97 0.82 M344.71 77.05 C359.26 59.38, 373.93 42.22, 410.97 0.82 M349.69 77.41 C368.6 55.68, 388.23 32.03, 416.61 0.43 M349.69 77.41 C375.19 47.21, 401.53 17.67, 416.61 0.43 M355.34 77.01 C380.6 48.27, 405.69 17.85, 421.6 0.79 M355.34 77.01 C374.56 53.92, 394.67 31.53, 421.6 0.79 M360.32 77.37 C380.85 55.68, 402.6 29.19, 427.24 0.39 M360.32 77.37 C384.6 50.96, 407.22 25.98, 427.24 0.39 M365.97 76.98 C386.97 54.89, 406.08 29.4, 432.23 0.75 M365.97 76.98 C380.17 61.02, 396.16 43.29, 432.23 0.75 M370.95 77.34 C397.57 46.65, 423.18 18.25, 437.87 0.36 M370.95 77.34 C387.65 56.49, 406.08 37.64, 437.87 0.36 M376.6 76.94 C388.98 59.43, 406 46.59, 442.86 0.72 M376.6 76.94 C402.2 47.63, 427.17 17.69, 442.86 0.72 M381.58 77.3 C399.4 57.82, 417.43 37.03, 448.5 0.32 M381.58 77.3 C396.82 57.98, 412.8 39.52, 448.5 0.32 M387.23 76.91 C408.52 50.76, 434.25 25.57, 453.49 0.68 M387.23 76.91 C408.73 52.15, 430.91 26.43, 453.49 0.68 M392.21 77.27 C410.75 54.32, 429.61 31.18, 459.13 0.29 M392.21 77.27 C418.32 46.14, 445.96 16.4, 459.13 0.29 M397.2 77.63 C420.6 49.81, 443.37 25.76, 464.12 0.65 M397.2 77.63 C418.88 52.46, 440.32 26.5, 464.12 0.65 M402.84 77.23 C419.36 58.3, 434.69 38.96, 469.76 0.25 M402.84 77.23 C424.61 53.1, 444.36 30.05, 469.76 0.25 M407.83 77.59 C425.78 59.38, 443.52 36.57, 474.75 0.61 M407.83 77.59 C421.51 61.98, 434.33 46.79, 474.75 0.61 M413.47 77.2 C435.38 53.9, 453.73 27.94, 480.39 0.22 M413.47 77.2 C427.27 60.68, 442.23 43.14, 480.39 0.22 M418.46 77.56 C440.54 54.07, 461.03 28.7, 485.38 0.58 M418.46 77.56 C439.7 53.43, 462.33 27.71, 485.38 0.58 M424.1 77.17 C441.04 60.19, 452.59 44.83, 491.02 0.19 M424.1 77.17 C450.26 49.23, 474.3 20.29, 491.02 0.19 M429.09 77.53 C443.5 61.32, 458.27 45.9, 496.01 0.55 M429.09 77.53 C444.93 59.2, 459.75 42.24, 496.01 0.55 M434.73 77.13 C460.52 46.85, 488.15 18.84, 501.65 0.15 M434.73 77.13 C455.31 52.59, 477.67 28.54, 501.65 0.15 M439.72 77.49 C462.5 51.44, 486.56 26.97, 506.64 0.51 M439.72 77.49 C465.03 49.27, 488.78 21.06, 506.64 0.51 M445.36 77.1 C469.54 49.58, 494.59 20.52, 511.63 0.87 M445.36 77.1 C471.95 47.18, 496.66 17.64, 511.63 0.87 M450.35 77.46 C477.72 50.11, 502.23 21.43, 517.27 0.48 M450.35 77.46 C475.28 48.43, 498.96 20.38, 517.27 0.48 M455.99 77.06 C480.95 51.14, 504.95 22.52, 522.26 0.84 M455.99 77.06 C470.36 61.19, 485.73 43.07, 522.26 0.84 M460.98 77.42 C486.91 47.4, 512.16 18.11, 527.9 0.44 M460.98 77.42 C485.96 48.57, 510.41 20.35, 527.9 0.44 M466.63 77.03 C488.36 53.37, 506.51 30.22, 532.89 0.8 M466.63 77.03 C483.04 57.12, 500.2 37.72, 532.89 0.8 M471.61 77.39 C485.08 61.35, 501.15 43.19, 537.87 1.16 M471.61 77.39 C491.84 55.75, 511.61 32.03, 537.87 1.16 M477.26 76.99 C494.45 59.01, 512.34 36.15, 542.2 2.28 M477.26 76.99 C490.8 59.76, 504.69 45.26, 542.2 2.28 M482.24 77.35 C503.12 51.61, 523.75 28.62, 545.88 4.15 M482.24 77.35 C495.12 63.07, 507.43 47.08, 545.88 4.15 M487.89 76.96 C509.86 52.52, 531.61 29.48, 548.24 7.53 M487.89 76.96 C503.45 59.67, 517.16 42.46, 548.24 7.53 M492.87 77.32 C507.99 61.25, 519.51 46.56, 551.26 10.15 M492.87 77.32 C509.32 58.69, 525.96 38.96, 551.26 10.15 M497.86 77.68 C510.98 62.38, 524.28 50.78, 553.62 13.53 M497.86 77.68 C517.26 55.99, 537.34 34.75, 553.62 13.53 M503.5 77.28 C520.39 57.96, 534.69 39.42, 553.36 19.93 M503.5 77.28 C519.22 61.39, 532.76 43.88, 553.36 19.93 M508.49 77.64 C516.64 65.22, 526.78 56.62, 553.1 26.32 M508.49 77.64 C524.75 58.73, 541.23 42.09, 553.1 26.32 M514.13 77.25 C527.84 62.6, 540.94 47.28, 552.84 32.72 M514.13 77.25 C526.29 63.27, 539.11 49, 552.84 32.72 M519.12 77.61 C533.22 62.53, 545.79 48.73, 553.23 38.37 M519.12 77.61 C532.4 62.82, 544.7 46.6, 553.23 38.37 M524.76 77.22 C533.49 67.43, 544.9 54.51, 552.97 44.76 M524.76 77.22 C535.01 63.69, 546.11 52.6, 552.97 44.76 M529.75 77.58 C534.58 71, 541 60.94, 552.71 51.16 M529.75 77.58 C537.6 67.44, 545.6 59.07, 552.71 51.16 M534.74 77.94 C542.4 68.51, 549.08 59.87, 553.11 56.8 M534.74 77.94 C541.56 70.48, 546.44 64.62, 553.11 56.8 M542.35 75.28 C545.76 70.66, 551.72 65.13, 553.5 62.45 M542.35 75.28 C544.89 72.45, 547.7 67.87, 553.5 62.45" stroke="#ced4da" stroke-width="0.5" fill="none"></path><path d="M19 0 M19 0 C207.03 -0.93, 393.82 -1.05, 533 0 M533 0 C544.62 1.68, 550.52 5.46, 552 19 M552 19 C553.99 32.78, 553.12 48.1, 552 57 M552 57 C553.36 71.08, 547.39 76.73, 533 76 M533 76 C374.95 77.88, 218.03 78.03, 19 76 M19 76 C8.31 75.25, 1.06 71.14, 0 57 M0 57 C-1.45 41.67, -1.34 29.1, 0 19 M0 19 C1.18 5.61, 4.99 -1.52, 19 0" stroke="#000000" stroke-width="1.5" fill="none" stroke-dasharray="8 9"></path></g><g transform="translate(289.0234374999991 941.4961751302108) rotate(0 107.5 17.5)"><text x="107.5" y="25" font-family="Virgil, Segoe UI Emoji" font-size="28px" fill="#000000" text-anchor="middle" style="white-space: pre;" direction="ltr">Feature Teams</text></g><g stroke-linecap="round"><g transform="translate(205.2734375 650.3379720052108) rotate(0 0.30954340024715066 118.12067231082347)"><path d="M1.05 0.87 C0.99 40.15, 0.61 195.62, 0.57 234.75 M0.14 0.29 C-0.16 39.79, -0.43 196.49, -0.43 235.95" stroke="#000000" stroke-width="1" fill="none"></path></g><g transform="translate(205.2734375 650.3379720052108) rotate(0 0.30954340024715066 118.12067231082347)"><path d="M-9.2 207.59 C-8.1 218.48, -2.84 227.9, -0.16 235.88 M-10.21 207.65 C-7.41 217.46, -3.33 225.78, -0.07 235.22" stroke="#000000" stroke-width="1" fill="none"></path></g><g transform="translate(205.2734375 650.3379720052108) rotate(0 0.30954340024715066 118.12067231082347)"><path d="M11.32 207.61 C4.76 218.68, 2.36 228.08, -0.16 235.88 M10.32 207.67 C6.72 217.4, 4.41 225.72, -0.07 235.22" stroke="#000000" stroke-width="1" fill="none"></path></g></g><mask></mask><g stroke-linecap="round"><g transform="translate(582.2949218749982 892.9258626302098) rotate(0 1.7873023738991378 -117.16491268649685)"><path d="M0.87 -0.1 C1.25 -39.31, 1.1 -195.1, 1.32 -234.23 M-0.13 -1.2 C0.72 -39.67, 3.42 -193.83, 3.7 -232.6" stroke="#000000" stroke-width="1" fill="none"></path></g><g transform="translate(582.2949218749982 892.9258626302098) rotate(0 1.7873023738991378 -117.16491268649685)"><path d="M13.42 -205.32 C11.43 -210.13, 8.1 -216.59, 3.63 -232.37 M13.48 -204.39 C11 -213.68, 6.98 -224.35, 2.96 -233.46" stroke="#000000" stroke-width="1" fill="none"></path></g><g transform="translate(582.2949218749982 892.9258626302098) rotate(0 1.7873023738991378 -117.16491268649685)"><path d="M-7.1 -205.59 C-4.51 -210.49, -3.25 -216.89, 3.63 -232.37 M-7.04 -204.66 C-2.1 -213.95, 1.29 -224.52, 2.96 -233.46" stroke="#000000" stroke-width="1" fill="none"></path></g></g><mask></mask><g transform="translate(10 764.8457845052098) rotate(0 56.5 17.5)"><text x="0" y="25" font-family="Virgil, Segoe UI Emoji" font-size="28px" fill="#000000" text-anchor="start" style="white-space: pre;" direction="ltr">Consume</text></g><g transform="translate(651.2792968749982 764.4551595052098) rotate(0 245 35)"><text x="0" y="25" font-family="Virgil, Segoe UI Emoji" font-size="28px" fill="#000000" text-anchor="start" style="white-space: pre;" direction="ltr">Contribute</text><text x="0" y="60" font-family="Virgil, Segoe UI Emoji" font-size="28px" fill="#000000" text-anchor="start" style="white-space: pre;" direction="ltr">With oversight from Platform Team</text></g><g stroke-linecap="round" transform="translate(123.41915045843871 10) rotate(0 276 38)"><path d="M5.06 4.4 C5.06 4.4, 5.06 4.4, 5.06 4.4 M5.06 4.4 C5.06 4.4, 5.06 4.4, 5.06 4.4 M3.48 12.3 C5.71 7.45, 10 6.09, 12.01 2.49 M3.48 12.3 C6.94 8.21, 9.51 4.84, 12.01 2.49 M1.91 20.21 C6.77 12.58, 14.1 8, 18.97 0.59 M1.91 20.21 C8.45 14.09, 13.8 6.11, 18.97 0.59 M1.65 26.61 C9.31 15.64, 18.38 7.15, 24.61 0.19 M1.65 26.61 C10.24 17.54, 18.66 7.09, 24.61 0.19 M2.04 32.25 C10.71 21.12, 23.28 7.05, 29.6 0.55 M2.04 32.25 C8.13 26.4, 12.74 18.79, 29.6 0.55 M2.44 37.89 C15.38 23.55, 23.91 13.48, 35.24 0.16 M2.44 37.89 C11.83 26.6, 21.42 16.16, 35.24 0.16 M2.18 44.29 C16.13 25.9, 32.01 10.08, 40.23 0.52 M2.18 44.29 C10.45 34.11, 20.1 24.07, 40.23 0.52 M2.57 49.94 C13.35 38.12, 22.99 27.53, 45.87 0.12 M2.57 49.94 C18.16 32.2, 34.28 13.16, 45.87 0.12 M2.31 56.33 C20.4 36.84, 35.33 18.24, 50.86 0.48 M2.31 56.33 C14.25 42.5, 25.73 28.64, 50.86 0.48 M2.7 61.98 C21.58 38.16, 44.67 15.3, 56.5 0.09 M2.7 61.98 C18.05 44.88, 35.04 26.92, 56.5 0.09 M3.1 67.62 C17.93 48.74, 35.06 31.23, 61.49 0.45 M3.1 67.62 C18.02 50.9, 31.91 33.62, 61.49 0.45 M6.12 70.24 C18.58 55.63, 31.4 38.03, 67.13 0.06 M6.12 70.24 C30.1 43.87, 53.58 17.15, 67.13 0.06 M8.48 73.62 C32.72 44.87, 56.53 18.17, 72.12 0.42 M8.48 73.62 C31.62 46.36, 54.78 20.83, 72.12 0.42 M12.16 75.49 C32.53 51.55, 53.19 26.51, 77.76 0.02 M12.16 75.49 C29.8 56.9, 47.52 36.36, 77.76 0.02 M15.83 77.36 C35.75 54.63, 52.86 33.81, 82.75 0.38 M15.83 77.36 C35.63 54.86, 55.22 32.15, 82.75 0.38 M21.47 76.97 C38.94 57.73, 55.43 38.99, 88.39 -0.01 M21.47 76.97 C42.88 53.5, 64.43 28.43, 88.39 -0.01 M26.46 77.33 C53.25 47.69, 77.42 21.75, 93.38 0.35 M26.46 77.33 C42.85 58.79, 58.4 41.74, 93.38 0.35 M32.1 76.93 C48.54 60.72, 62.8 42.66, 99.02 -0.05 M32.1 76.93 C51.41 54.86, 70.58 32.63, 99.02 -0.05 M37.09 77.29 C57.13 53.1, 79.28 29.57, 104.01 0.31 M37.09 77.29 C51.19 62.22, 65.86 45.32, 104.01 0.31 M42.73 76.9 C55.95 59.13, 69.09 45.49, 109.65 -0.08 M42.73 76.9 C58.53 60.18, 72.66 41.55, 109.65 -0.08 M47.72 77.26 C62.81 60.82, 77.4 42.49, 114.64 0.28 M47.72 77.26 C68.53 53.99, 88.08 32.14, 114.64 0.28 M53.36 76.86 C68.89 59.13, 82.8 41.43, 119.63 0.64 M53.36 76.86 C78.32 47.68, 102.54 21.15, 119.63 0.64 M58.35 77.22 C73.17 59.68, 89.73 38.05, 125.27 0.24 M58.35 77.22 C72.39 59.65, 88.55 42.33, 125.27 0.24 M63.99 76.83 C79.22 57.55, 99.24 40.36, 130.26 0.6 M63.99 76.83 C83.54 54.1, 100.83 32.32, 130.26 0.6 M68.98 77.19 C87.82 53.32, 110.46 30.06, 135.9 0.21 M68.98 77.19 C90.78 51.09, 115.53 23.57, 135.9 0.21 M74.62 76.79 C92.22 56.19, 112.9 31.36, 140.89 0.57 M74.62 76.79 C95.5 54.19, 114.82 32.48, 140.89 0.57 M79.61 77.15 C98.75 54.88, 117.68 31.29, 146.53 0.17 M79.61 77.15 C99.66 55.01, 117.86 33.33, 146.53 0.17 M85.25 76.76 C108.12 51.8, 131.57 24.06, 151.52 0.53 M85.25 76.76 C101.6 55.61, 118.96 37.31, 151.52 0.53 M90.24 77.12 C105.3 62.27, 117.74 45.34, 157.16 0.14 M90.24 77.12 C109.97 53.13, 131.59 31.28, 157.16 0.14 M95.88 76.73 C114.2 56.85, 127.06 40.85, 162.15 0.5 M95.88 76.73 C121.34 48.01, 147.81 19.06, 162.15 0.5 M100.87 77.09 C122.25 56.12, 138.72 29.18, 167.79 0.11 M100.87 77.09 C121.77 53.17, 141.32 29.31, 167.79 0.11 M105.86 77.45 C132.8 49.7, 156.45 21.7, 172.78 0.47 M105.86 77.45 C121.34 60.61, 136.93 42.15, 172.78 0.47 M111.5 77.05 C137.14 47.99, 162.17 18.99, 178.42 0.07 M111.5 77.05 C129.06 57.42, 145.71 37.24, 178.42 0.07 M116.49 77.41 C140.33 50.05, 163.34 23.58, 183.41 0.43 M116.49 77.41 C136.55 53.77, 157.54 29.45, 183.41 0.43 M122.13 77.02 C146.63 51.58, 167.72 23.13, 189.05 0.04 M122.13 77.02 C145.6 51.3, 168.67 24.03, 189.05 0.04 M127.12 77.38 C141.21 61.13, 156.71 45.42, 194.04 0.4 M127.12 77.38 C144.76 57.35, 160.43 37.03, 194.04 0.4 M132.76 76.98 C159.51 48.6, 181.36 20.64, 199.68 0 M132.76 76.98 C148.9 59.63, 163.87 41.62, 199.68 0 M137.75 77.34 C161.89 49.88, 184.38 21.09, 204.67 0.36 M137.75 77.34 C157.28 55.8, 175.28 32.72, 204.67 0.36 M143.39 76.95 C167.34 51.28, 189.78 22.2, 209.65 0.72 M143.39 76.95 C156.86 59.11, 171.54 43.19, 209.65 0.72 M148.38 77.31 C160.69 60.72, 177.37 44.62, 215.3 0.33 M148.38 77.31 C170.87 51.51, 193.26 26.81, 215.3 0.33 M154.02 76.91 C176.18 51.75, 195.8 27.61, 220.28 0.69 M154.02 76.91 C168.92 59.27, 185.18 42.46, 220.28 0.69 M159.01 77.27 C171.18 62.91, 187.04 47.67, 225.93 0.29 M159.01 77.27 C178.37 54.82, 197.08 32.61, 225.93 0.29 M164.65 76.88 C185.43 50.53, 207.68 28.06, 230.91 0.65 M164.65 76.88 C180.98 56.05, 200.52 35.44, 230.91 0.65 M169.64 77.24 C193.41 50.25, 218.69 19.01, 236.56 0.26 M169.64 77.24 C183.91 61.91, 195.58 44.96, 236.56 0.26 M175.28 76.84 C190.5 59.2, 204.23 42.12, 241.54 0.62 M175.28 76.84 C199.54 48.41, 224.1 20.41, 241.54 0.62 M180.27 77.2 C202.52 50.52, 224.14 25.92, 247.19 0.22 M180.27 77.2 C196.92 57.47, 213.68 38.91, 247.19 0.22 M185.91 76.81 C204.89 54.34, 225.73 33.06, 252.17 0.58 M185.91 76.81 C200.83 59.1, 215.84 43.35, 252.17 0.58 M190.9 77.17 C213.51 52.41, 237.45 28.2, 257.82 0.19 M190.9 77.17 C215.97 49.49, 239.57 21.32, 257.82 0.19 M195.89 77.53 C218.11 52.96, 241.74 24.15, 262.8 0.55 M195.89 77.53 C218.14 51.59, 242.02 25.14, 262.8 0.55 M201.53 77.14 C216.49 59.89, 231.2 45.42, 268.45 0.16 M201.53 77.14 C215.1 59.96, 230.9 43.49, 268.45 0.16 M206.52 77.5 C229.1 54.12, 247.39 27.68, 273.43 0.52 M206.52 77.5 C228.56 51.38, 249.9 27.16, 273.43 0.52 M212.16 77.1 C240.48 44.53, 267.28 16.37, 279.08 0.12 M212.16 77.1 C229.46 57.18, 245.48 38.56, 279.08 0.12 M217.15 77.46 C229.21 61.89, 243.74 42.31, 284.06 0.48 M217.15 77.46 C243.65 48.23, 269.81 17.85, 284.06 0.48 M222.79 77.07 C244.86 48.69, 269.19 21.37, 289.71 0.09 M222.79 77.07 C238.92 58.89, 253.07 40.39, 289.71 0.09 M227.78 77.43 C252.85 49.17, 276.99 22.4, 294.69 0.45 M227.78 77.43 C255.05 45.93, 281.41 16.04, 294.69 0.45 M233.42 77.03 C256.38 53.61, 275.58 27.75, 300.34 0.05 M233.42 77.03 C251.09 55.28, 271.42 33.59, 300.34 0.05 M238.41 77.39 C262.65 48.55, 288.94 17.66, 305.32 0.41 M238.41 77.39 C256.33 56.87, 276.42 34.55, 305.32 0.41 M244.05 77 C265.46 48.66, 289.33 24.45, 310.31 0.77 M244.05 77 C261.48 56.72, 278.06 35.61, 310.31 0.77 M249.04 77.36 C263.8 63.32, 278.22 47.14, 315.95 0.38 M249.04 77.36 C274.22 47.18, 300.58 16.54, 315.95 0.38 M254.68 76.96 C274.13 56.89, 290.52 34.36, 320.94 0.74 M254.68 76.96 C281.76 47.53, 307.35 17.66, 320.94 0.74 M259.67 77.32 C278.05 58.75, 291.7 39.17, 326.58 0.34 M259.67 77.32 C283.33 51.1, 306.18 24.25, 326.58 0.34 M265.31 76.93 C279.89 61.99, 293.52 44.26, 331.57 0.7 M265.31 76.93 C280.21 59.64, 295.32 42.06, 331.57 0.7 M270.3 77.29 C285.85 57.14, 306.32 34.74, 337.21 0.31 M270.3 77.29 C284.36 61.33, 298.47 44.98, 337.21 0.31 M275.94 76.89 C298.95 49.9, 323.09 25.45, 342.2 0.67 M275.94 76.89 C293.57 55.77, 312.49 34.46, 342.2 0.67 M280.93 77.25 C301.31 54.15, 318.95 34.87, 347.84 0.27 M280.93 77.25 C300.38 55.69, 320.59 33.16, 347.84 0.27 M286.57 76.86 C313.6 44.84, 340.52 14.98, 352.83 0.63 M286.57 76.86 C312.35 46.21, 338.8 16.93, 352.83 0.63 M291.56 77.22 C306.28 58.94, 325.73 39.55, 358.47 0.24 M291.56 77.22 C313.61 52.75, 334.81 27.54, 358.47 0.24 M296.54 77.58 C312.13 60.78, 324.69 46.05, 363.46 0.6 M296.54 77.58 C321.55 48.95, 346.42 17.95, 363.46 0.6 M302.19 77.19 C329.82 47.4, 356.29 18.12, 369.1 0.2 M302.19 77.19 C324.16 52.89, 346.85 26.67, 369.1 0.2 M307.17 77.55 C326.01 56.65, 343.25 37.26, 374.09 0.56 M307.17 77.55 C333.48 48.64, 358.1 18.1, 374.09 0.56 M312.82 77.15 C331.69 56.41, 350.32 36.61, 379.73 0.17 M312.82 77.15 C335.94 50.4, 358.29 24.39, 379.73 0.17 M317.8 77.51 C331.75 62.73, 346.39 44.98, 384.72 0.53 M317.8 77.51 C338.83 54.47, 357.85 30.03, 384.72 0.53 M323.45 77.12 C347.89 50.05, 370.2 24.7, 390.36 0.14 M323.45 77.12 C340.89 57.47, 357.58 37.26, 390.36 0.14 M328.43 77.48 C350.73 51.14, 375.23 27.28, 395.35 0.5 M328.43 77.48 C353.97 49.01, 379.33 18.31, 395.35 0.5 M334.08 77.08 C355.58 52.09, 378.82 23.4, 400.99 0.1 M334.08 77.08 C348.26 60.13, 361.94 43.67, 400.99 0.1 M339.06 77.44 C360.5 49.99, 385.15 26.17, 405.98 0.46 M339.06 77.44 C366.87 46.18, 392.49 16.79, 405.98 0.46 M344.71 77.05 C365.98 51.91, 387.21 26.27, 410.97 0.82 M344.71 77.05 C358.16 61.19, 372.11 45.7, 410.97 0.82 M349.69 77.41 C368.15 55.73, 386.07 34.97, 416.61 0.43 M349.69 77.41 C367.9 54.41, 388.46 31.51, 416.61 0.43 M355.34 77.01 C374.16 55.61, 390.44 36.23, 421.6 0.79 M355.34 77.01 C371.45 57.55, 390.04 38.52, 421.6 0.79 M360.32 77.37 C375.59 59.95, 392.86 39.91, 427.24 0.39 M360.32 77.37 C384.7 51.26, 407.91 23.93, 427.24 0.39 M365.97 76.98 C380.82 58.91, 397.41 44.73, 432.23 0.75 M365.97 76.98 C381.22 57.78, 398.39 38.08, 432.23 0.75 M370.95 77.34 C395.48 49.35, 417.43 24.06, 437.87 0.36 M370.95 77.34 C398.99 46.33, 424.24 17.42, 437.87 0.36 M376.6 76.94 C400.98 50.1, 424.36 21.7, 442.86 0.72 M376.6 76.94 C399.33 52.89, 420.11 28.81, 442.86 0.72 M381.58 77.3 C400.51 56.59, 415.13 37.04, 448.5 0.32 M381.58 77.3 C395.95 60.46, 409.75 45.71, 448.5 0.32 M387.23 76.91 C408.15 50.74, 431.12 26.17, 453.49 0.68 M387.23 76.91 C402.95 57.69, 419.02 38.84, 453.49 0.68 M392.21 77.27 C410.31 55.26, 426.61 36.94, 459.13 0.29 M392.21 77.27 C412.34 52.82, 433.31 28.35, 459.13 0.29 M397.2 77.63 C420 51.92, 441.2 26.14, 464.12 0.65 M397.2 77.63 C413.66 60.3, 428.16 42.37, 464.12 0.65 M402.84 77.23 C421.16 56.86, 440.6 32.33, 469.76 0.25 M402.84 77.23 C427.78 48.08, 454.57 19.06, 469.76 0.25 M407.83 77.59 C424.17 61.27, 437.72 43.6, 474.75 0.61 M407.83 77.59 C430.72 51.5, 454.68 23.39, 474.75 0.61 M413.47 77.2 C427.48 60.05, 442.2 44.7, 480.39 0.22 M413.47 77.2 C427.19 60.09, 443.28 42.43, 480.39 0.22 M418.46 77.56 C441.37 47.3, 469.19 19.93, 485.38 0.58 M418.46 77.56 C440.04 53.87, 462.2 27.34, 485.38 0.58 M424.1 77.17 C445.26 51.84, 471.04 22.83, 491.02 0.19 M424.1 77.17 C451.07 47.03, 477.77 16.91, 491.02 0.19 M429.09 77.53 C448.24 57.07, 465.77 34.38, 496.01 0.55 M429.09 77.53 C448.53 53.16, 470.11 29.63, 496.01 0.55 M434.73 77.13 C459.28 45.86, 485.62 18.1, 501.65 0.15 M434.73 77.13 C448.94 60.02, 464.54 43.33, 501.65 0.15 M439.72 77.49 C459.5 54.18, 482.18 27.2, 506.64 0.51 M439.72 77.49 C461.83 52.39, 483.23 27.76, 506.64 0.51 M445.36 77.1 C464.16 57.04, 481.66 33.75, 511.63 0.87 M445.36 77.1 C469.36 50.62, 494 22.56, 511.63 0.87 M450.35 77.46 C476.12 47.83, 500.11 16.5, 517.27 0.48 M450.35 77.46 C463.93 61.21, 479.51 44.59, 517.27 0.48 M455.99 77.06 C474.72 53.39, 496.62 32.45, 522.26 0.84 M455.99 77.06 C469.79 61.06, 483.42 44.67, 522.26 0.84 M460.98 77.42 C477.34 56.74, 495.04 35.35, 527.9 0.44 M460.98 77.42 C481.03 55.68, 500.05 32.05, 527.9 0.44 M466.63 77.03 C491.16 46.81, 516.19 17.96, 532.89 0.8 M466.63 77.03 C489.86 51.7, 510.93 27.81, 532.89 0.8 M471.61 77.39 C486.76 59.11, 506.33 39.79, 537.87 1.16 M471.61 77.39 C491.38 54.81, 511.72 32.77, 537.87 1.16 M477.26 76.99 C493.24 58.27, 506.56 40.17, 542.2 2.28 M477.26 76.99 C502.76 46.83, 528.29 16.56, 542.2 2.28 M482.24 77.35 C503.45 53.28, 526.49 27.33, 545.88 4.15 M482.24 77.35 C497.04 61.4, 510.8 45.15, 545.88 4.15 M487.89 76.96 C512.38 50.86, 535.69 21.15, 548.24 7.53 M487.89 76.96 C504.41 58.85, 521.17 38.84, 548.24 7.53 M492.87 77.32 C508.06 61.92, 521.24 46.96, 551.26 10.15 M492.87 77.32 C513.28 55.88, 531.3 34.38, 551.26 10.15 M497.86 77.68 C516.97 53.11, 539.91 30.38, 553.62 13.53 M497.86 77.68 C517.69 54.88, 537.15 30.99, 553.62 13.53 M503.5 77.28 C520.82 61.33, 537.23 41.44, 553.36 19.93 M503.5 77.28 C517.8 59.89, 532.18 43.47, 553.36 19.93 M508.49 77.64 C521.43 61.13, 535.71 45.37, 553.1 26.32 M508.49 77.64 C524.06 59.09, 541.29 40.11, 553.1 26.32 M514.13 77.25 C527.13 62.78, 539.01 49.96, 552.84 32.72 M514.13 77.25 C523.62 66.6, 533.39 55.05, 552.84 32.72 M519.12 77.61 C533.28 64.03, 544.6 48.43, 553.23 38.37 M519.12 77.61 C525.88 69.28, 533.32 62.34, 553.23 38.37 M524.76 77.22 C531.03 67.43, 536.88 59.33, 552.97 44.76 M524.76 77.22 C536.78 63.56, 547.78 50.61, 552.97 44.76 M529.75 77.58 C534.32 71.25, 538.18 65.16, 552.71 51.16 M529.75 77.58 C536.65 70.22, 542.26 62.38, 552.71 51.16 M534.74 77.94 C538.01 75.17, 541.04 68.55, 553.11 56.8 M534.74 77.94 C540.11 70.04, 547.6 63.64, 553.11 56.8 M542.35 75.28 C546.1 71.34, 549.14 67.94, 553.5 62.45 M542.35 75.28 C544.77 73.02, 546.36 69.49, 553.5 62.45" stroke="#ced4da" stroke-width="0.5" fill="none"></path><path d="M19 0 M19 0 C124.54 -2.07, 231.85 -1.66, 533 0 M533 0 C543.7 1.96, 551.64 7.42, 552 19 M552 19 C553.98 32.68, 552.39 44.49, 552 57 M552 57 C553.4 68.2, 546.78 75.91, 533 76 M533 76 C340.78 75.82, 148.39 75.83, 19 76 M19 76 C5.01 74.84, -0.72 68.61, 0 57 M0 57 C-1.56 41.58, -2.1 30.36, 0 19 M0 19 C-0.17 6.94, 7.72 -0.68, 19 0" stroke="#000000" stroke-width="1.5" fill="none" stroke-dasharray="8 9"></path></g><g transform="translate(294.9191504584387 30) rotate(0 104.5 17.5)"><text x="104.5" y="25" font-family="Virgil, Segoe UI Emoji" font-size="28px" fill="#000000" text-anchor="middle" style="white-space: pre;" direction="ltr">Platform Team</text></g><g stroke-linecap="round"><g transform="translate(398.5858679877365 106.33343505859466) rotate(0 1.3962459228932858 103.80477471553722)"><path d="M-0.49 0.16 C0.02 34.59, 2.53 172.46, 3.29 206.8 M1.45 -0.8 C1.79 33.82, 1.94 173.73, 2.32 208.41" stroke="#000000" stroke-width="1" fill="none"></path></g><g transform="translate(398.5858679877365 106.33343505859466) rotate(0 1.3962459228932858 103.80477471553722)"><path d="M-7.83 180.2 C-4.54 190.4, -2.23 198.93, 2.1 208.2 M-7.74 179.54 C-4.69 191.24, 1.17 202.7, 3.08 209.09" stroke="#000000" stroke-width="1" fill="none"></path></g><g transform="translate(398.5858679877365 106.33343505859466) rotate(0 1.3962459228932858 103.80477471553722)"><path d="M12.69 180.09 C9.53 190.24, 5.39 198.8, 2.1 208.2 M12.78 179.43 C7.86 191.26, 5.75 202.76, 3.08 209.09" stroke="#000000" stroke-width="1" fill="none"></path></g></g><mask></mask><g transform="translate(457.58571539984587 158.83328247070403) rotate(0 224 35)"><text x="0" y="25" font-family="Virgil, Segoe UI Emoji" font-size="28px" fill="#000000" text-anchor="start" style="white-space: pre;" direction="ltr">Contribute</text><text x="0" y="60" font-family="Virgil, Segoe UI Emoji" font-size="28px" fill="#000000" text-anchor="start" style="white-space: pre;" direction="ltr">Define patterns / use guidelines</text></g></svg>