<svg version="1.1" xmlns="http://www.w3.org/2000/svg" viewBox="0 0 938.3632812499999 423.2421875" width="1876.7265624999998" height="846.484375">
  <!-- svg-source:excalidraw -->
  
  <defs>
    <style class="style-fonts">
      @font-face {
        font-family: "Virgil";
        src: url("https://excalidraw.com/Virgil.woff2");
      }
      @font-face {
        font-family: "Cascadia";
        src: url("https://excalidraw.com/Cascadia.woff2");
      }
      @font-face {
        font-family: "Assistant";
        src: url("https://app.excalidraw.com//dist/excalidraw-assets/Assistant-Regular.woff2");
      }
    </style>
    
  </defs>
<g stroke-linecap="round" transform="translate(10 147.3125) rotate(0 119.345703125 119.345703125)"><path d="M114.77 -0.28 C127.6 -2.7, 141.82 0.93, 154.65 5.19 C167.48 9.45, 180.82 17.05, 191.75 25.28 C202.68 33.5, 212.78 43.06, 220.23 54.53 C227.67 66, 233.66 80.67, 236.42 94.09 C239.19 107.52, 238.75 121.58, 236.81 135.1 C234.87 148.62, 230.89 163.03, 224.78 175.22 C218.67 187.41, 210.03 199.02, 200.16 208.24 C190.3 217.47, 178.34 225.5, 165.59 230.59 C152.85 235.68, 137.44 238.27, 123.68 238.79 C109.92 239.32, 95.77 237.9, 83.01 233.75 C70.25 229.59, 57.89 222.33, 47.13 213.86 C36.36 205.38, 25.74 194.42, 18.41 182.89 C11.08 171.36, 5.94 157.72, 3.12 144.68 C0.3 131.63, -0.16 118.05, 1.5 104.64 C3.16 91.24, 6.8 76.29, 13.08 64.22 C19.37 52.14, 28.93 41.37, 39.19 32.19 C49.45 23, 60.17 14.33, 74.66 9.1 C89.14 3.87, 115.82 1.84, 126.1 0.81 C136.38 -0.21, 136.37 1.07, 136.32 2.96 M71.54 9.11 C82.6 1.94, 96.78 -0.05, 110.25 -1.02 C123.73 -1.98, 139.11 -0.75, 152.38 3.32 C165.65 7.39, 178.85 15.31, 189.9 23.41 C200.95 31.51, 211.25 40.99, 218.69 51.9 C226.12 62.82, 231.06 75.44, 234.52 88.88 C237.98 102.33, 240.95 118.78, 239.44 132.59 C237.92 146.4, 231.77 159.93, 225.44 171.75 C219.12 183.58, 211.11 194.02, 201.51 203.53 C191.91 213.05, 180.18 223.24, 167.86 228.84 C155.53 234.45, 140.95 236.2, 127.56 237.18 C114.16 238.16, 100.63 238.12, 87.49 234.72 C74.34 231.33, 60.07 224.82, 48.7 216.81 C37.32 208.8, 26.59 198.07, 19.26 186.66 C11.93 175.26, 7.91 161.6, 4.69 148.4 C1.48 135.19, -1.45 121.13, -0.02 107.42 C1.42 93.72, 7.06 78.52, 13.29 66.16 C19.52 53.81, 27.8 42.58, 37.36 33.27 C46.92 23.97, 65.06 13.63, 70.65 10.33 C76.24 7.03, 70.16 11.58, 70.91 13.46" stroke="#000000" stroke-width="1" fill="none"></path></g><g transform="translate(89.345703125 254.158203125) rotate(0 40 12.5)"><text x="40" y="0" font-family="Virgil, Segoe UI Emoji" font-size="20px" fill="#000000" text-anchor="middle" style="white-space: pre;" direction="ltr" dominant-baseline="text-before-edge">Monolith</text></g><g stroke-linecap="round" transform="translate(148.25390625 185.15234375) rotate(0 17.458984375 17.458984375)"><path d="M22.5 4.5 C24.51 7.55, 26.99 9.54, 30.42 13.5 M22.5 4.5 C25.71 8.46, 28.53 10.94, 30.42 13.5 M30.42 13.5 C34.5 16.78, 33.01 18.24, 30.42 22.5 M30.42 13.5 C33.71 18.85, 35.31 17.88, 30.42 22.5 M30.42 22.5 C27.2 25.4, 25.22 27.72, 22.5 30.42 M30.42 22.5 C27.64 25.45, 25.25 27.56, 22.5 30.42 M22.5 30.42 C16.05 35.57, 17.24 33.22, 13.5 30.42 M22.5 30.42 C16.09 36.91, 18.56 34.58, 13.5 30.42 M13.5 30.42 C11.23 26.81, 6.74 23.64, 4.5 22.5 M13.5 30.42 C10.76 28, 8.02 26.1, 4.5 22.5 M4.5 22.5 C-0.84 17.92, 1.49 16.85, 4.5 13.5 M4.5 22.5 C0.04 17.55, -0.79 16.46, 4.5 13.5 M4.5 13.5 C7.36 9.34, 10.35 6.94, 13.5 4.5 M4.5 13.5 C7.41 10.68, 9.57 8.81, 13.5 4.5 M13.5 4.5 C18.7 -1.32, 16.81 1.17, 22.5 4.5 M13.5 4.5 C19.12 1.17, 19.78 -1.22, 22.5 4.5" stroke="#000000" stroke-width="1" fill="none"></path></g><g stroke-linecap="round" transform="translate(59.453125 196.03515625) rotate(0 11 17.5)"><path d="M15 4.5 C16.31 7.25, 17.63 10.96, 19 13.5 M15 4.5 C15.75 6.8, 16.96 8.94, 19 13.5 M19 13.5 C20.66 19.61, 22.99 16.9, 19 22.5 M19 13.5 C21.06 16.58, 20.26 18.44, 19 22.5 M19 22.5 C18.25 24.67, 16.41 28.09, 15 30.5 M19 22.5 C17.87 25.38, 16.49 28.19, 15 30.5 M15 30.5 C10.93 36.97, 11.87 35.67, 9 30.5 M15 30.5 C9.76 36.15, 12.02 36.4, 9 30.5 M9 30.5 C5.88 27.28, 4.13 24.58, 3 22.5 M9 30.5 C8.05 28.64, 5.59 26.34, 3 22.5 M3 22.5 C-1.76 17.88, 0.01 17.78, 3 13.5 M3 22.5 C2 18.55, -0.14 17.72, 3 13.5 M3 13.5 C4.54 11.83, 6.61 8.07, 9 4.5 M3 13.5 C5.56 10.39, 7.42 7.64, 9 4.5 M9 4.5 C12.46 -0.59, 13.14 -0.4, 15 4.5 M9 4.5 C9.76 -1.52, 12.12 0.45, 15 4.5" stroke="#000000" stroke-width="1" fill="none"></path></g><g stroke-linecap="round" transform="translate(183.7890625 291.77734375) rotate(0 12.736328125 17.5)"><path d="M16.25 4.5 C17.23 7.02, 19.31 10.34, 22.22 13.5 M16.25 4.5 C18.16 7.12, 19.76 9.84, 22.22 13.5 M22.22 13.5 C26.97 19.69, 25.13 19.96, 22.22 22.5 M22.22 13.5 C25.7 17.97, 26.64 18.3, 22.22 22.5 M22.22 22.5 C20.35 26.61, 17.81 28.52, 16.25 30.5 M22.22 22.5 C19.75 25.32, 18.04 27.89, 16.25 30.5 M16.25 30.5 C12.88 35.11, 14.7 35, 9.75 30.5 M16.25 30.5 C12.65 36.17, 11.83 35.66, 9.75 30.5 M9.75 30.5 C8.16 28.73, 6.19 26.57, 3.25 22.5 M9.75 30.5 C7.57 27.26, 4.82 23.69, 3.25 22.5 M3.25 22.5 C0.22 17.24, -1.43 19.07, 3.25 13.5 M3.25 22.5 C0.45 20.23, -1.79 16.52, 3.25 13.5 M3.25 13.5 C5.98 11.2, 6.13 8.28, 9.75 4.5 M3.25 13.5 C5.82 10.43, 7.75 7.28, 9.75 4.5 M9.75 4.5 C11.12 -0.74, 13.3 0.25, 16.25 4.5 M9.75 4.5 C14.77 -1.22, 13.78 0.25, 16.25 4.5" stroke="#000000" stroke-width="1" fill="none"></path></g><g stroke-linecap="round" transform="translate(75.76171875 332.55078125) rotate(0 9.0546875 9.0546875)"><path d="M12.5 2.5 C14.01 5.02, 15.13 6.26, 15.61 7.5 M12.5 2.5 C13.41 4.33, 14.77 5.94, 15.61 7.5 M15.61 7.5 C17.99 10.11, 19.81 10, 15.61 12.5 M15.61 7.5 C17.76 11.17, 16.94 10.66, 15.61 12.5 M15.61 12.5 C14.77 13.65, 13.83 14.64, 12.5 15.61 M15.61 12.5 C14.59 13.71, 13.28 14.79, 12.5 15.61 M12.5 15.61 C10.22 17.35, 8.57 19.17, 7.5 15.61 M12.5 15.61 C10.45 20.34, 8.21 16.63, 7.5 15.61 M7.5 15.61 C6.42 14.83, 3.99 13.78, 2.5 12.5 M7.5 15.61 C5.99 14.53, 4.15 13.42, 2.5 12.5 M2.5 12.5 C-1.88 9.26, 0.3 10.25, 2.5 7.5 M2.5 12.5 C1.77 8.78, 0.78 10.25, 2.5 7.5 M2.5 7.5 C4.22 6.12, 5.89 4.69, 7.5 2.5 M2.5 7.5 C3.38 6.68, 4.5 5.06, 7.5 2.5 M7.5 2.5 C10.41 -1.13, 11.06 1.26, 12.5 2.5 M7.5 2.5 C11.69 1.08, 8.84 1.54, 12.5 2.5" stroke="#000000" stroke-width="1" fill="none"></path></g><g stroke-linecap="round" transform="translate(391.7138671875 94.37109375) rotate(0 30.1484375 30.1484375)"><path d="M15.07 0 C28.41 1.35, 38.07 0.69, 45.22 0 M15.07 0 C21.16 0.95, 27.04 -0.58, 45.22 0 M45.22 0 C53.48 0.32, 62.09 3.79, 60.3 15.07 M45.22 0 C57.03 0.3, 58.08 3.88, 60.3 15.07 M60.3 15.07 C59.16 23.33, 61.97 27.79, 60.3 45.22 M60.3 15.07 C60.27 23.77, 59.27 29.74, 60.3 45.22 M60.3 45.22 C61.91 53.28, 57.06 61.05, 45.22 60.3 M60.3 45.22 C60.35 54.34, 55.9 59.64, 45.22 60.3 M45.22 60.3 C35.96 59.33, 21.25 61.76, 15.07 60.3 M45.22 60.3 C38.6 59.71, 31.1 60.25, 15.07 60.3 M15.07 60.3 C6.47 59.3, 0.88 53.39, 0 45.22 M15.07 60.3 C4.71 61.03, 0.27 54.11, 0 45.22 M0 45.22 C1.99 37.05, -0.17 28.14, 0 15.07 M0 45.22 C0.78 33.93, 0.64 20.4, 0 15.07 M0 15.07 C1.83 3.09, 4.74 -0.77, 15.07 0 M0 15.07 C-0.02 4.29, 4.44 1.92, 15.07 0" stroke="#000000" stroke-width="1" fill="none"></path></g><g transform="translate(404.8623046875 114.51953125) rotate(0 17 10)"><text x="17" y="0" font-family="Virgil, Segoe UI Emoji" font-size="16px" fill="#000000" text-anchor="middle" style="white-space: pre;" direction="ltr" dominant-baseline="text-before-edge">MFE</text></g><g stroke-linecap="round" transform="translate(391.7138671875 176.8564453125) rotate(0 30.1484375 30.1484375)"><path d="M15.07 0 C26.81 2.03, 38.1 -1.56, 45.22 0 M15.07 0 C23.77 -0.44, 33.71 1.05, 45.22 0 M45.22 0 C56.32 -1.37, 59.57 5.49, 60.3 15.07 M45.22 0 C57.2 -1.32, 58.63 3.5, 60.3 15.07 M60.3 15.07 C61.24 22.13, 62.21 26.62, 60.3 45.22 M60.3 15.07 C60.47 21.99, 59.58 30.95, 60.3 45.22 M60.3 45.22 C59.33 57.08, 56.64 60.28, 45.22 60.3 M60.3 45.22 C58.31 54.12, 56.24 59.52, 45.22 60.3 M45.22 60.3 C37.19 60.61, 25.72 60.97, 15.07 60.3 M45.22 60.3 C35.49 60.72, 25.7 60.95, 15.07 60.3 M15.07 60.3 C6.93 61.45, -1.76 55.81, 0 45.22 M15.07 60.3 C4.32 58.78, 2.09 55.31, 0 45.22 M0 45.22 C0.25 33.81, 0.04 22.63, 0 15.07 M0 45.22 C0.64 37.76, -0.9 31.62, 0 15.07 M0 15.07 C-0.56 4.14, 4.06 0.37, 15.07 0 M0 15.07 C1.98 3.54, 4.95 1.21, 15.07 0" stroke="#000000" stroke-width="1" fill="none"></path></g><g transform="translate(404.8623046875 197.0048828125) rotate(0 17 10)"><text x="17" y="0" font-family="Virgil, Segoe UI Emoji" font-size="16px" fill="#000000" text-anchor="middle" style="white-space: pre;" direction="ltr" dominant-baseline="text-before-edge">MFE</text></g><g stroke-linecap="round" transform="translate(391.7138671875 259.341796875) rotate(0 30.1484375 30.1484375)"><path d="M15.07 0 C25.68 -1.67, 39.2 -1.41, 45.22 0 M15.07 0 C25.18 -0.4, 36.03 0.98, 45.22 0 M45.22 0 C54.82 -1.91, 61.08 6.65, 60.3 15.07 M45.22 0 C56.1 -0.31, 60.85 6.33, 60.3 15.07 M60.3 15.07 C62.17 25.4, 61.29 34.87, 60.3 45.22 M60.3 15.07 C59.94 26.46, 61.02 37.57, 60.3 45.22 M60.3 45.22 C60.21 55.13, 55.8 60.51, 45.22 60.3 M60.3 45.22 C58.78 53.62, 53.16 59.52, 45.22 60.3 M45.22 60.3 C34.91 58.24, 26.58 61.69, 15.07 60.3 M45.22 60.3 C38.57 59.26, 33.3 59.23, 15.07 60.3 M15.07 60.3 C3.87 59.74, 0.71 53.98, 0 45.22 M15.07 60.3 C4.36 58.42, -2.25 54.1, 0 45.22 M0 45.22 C1.2 33.55, -2.09 24.42, 0 15.07 M0 45.22 C-0.86 36.91, -0.88 28.63, 0 15.07 M0 15.07 C0.27 5.22, 4.53 -0.63, 15.07 0 M0 15.07 C-0.5 4.01, 6.56 -1.59, 15.07 0" stroke="#000000" stroke-width="1" fill="none"></path></g><g transform="translate(404.8623046875 279.490234375) rotate(0 17 10)"><text x="17" y="0" font-family="Virgil, Segoe UI Emoji" font-size="16px" fill="#000000" text-anchor="middle" style="white-space: pre;" direction="ltr" dominant-baseline="text-before-edge">MFE</text></g><g stroke-linecap="round" transform="translate(391.7138671875 341.8271484375) rotate(0 30.1484375 30.1484375)"><path d="M15.07 0 C24.89 0.58, 33.74 0.55, 45.22 0 M15.07 0 C25.53 0.97, 35.03 -0.32, 45.22 0 M45.22 0 C55.81 -0.45, 61.13 5.61, 60.3 15.07 M45.22 0 C55.72 -2.27, 59.07 4.4, 60.3 15.07 M60.3 15.07 C62.02 25.04, 58.81 36.61, 60.3 45.22 M60.3 15.07 C60.93 26.65, 60.6 36.59, 60.3 45.22 M60.3 45.22 C61.3 54.54, 54.28 59.18, 45.22 60.3 M60.3 45.22 C61.12 55.11, 56.13 60.64, 45.22 60.3 M45.22 60.3 C33.09 58.71, 21.82 59.78, 15.07 60.3 M45.22 60.3 C34.9 60.25, 23.61 59.53, 15.07 60.3 M15.07 60.3 C6.65 61.07, 1.34 53.92, 0 45.22 M15.07 60.3 C7.03 58.88, -1.26 55.47, 0 45.22 M0 45.22 C-0.46 36.66, -0.66 31.84, 0 15.07 M0 45.22 C-1.05 38.45, 0.52 32.8, 0 15.07 M0 15.07 C-0.86 3.55, 6.5 1.58, 15.07 0 M0 15.07 C0.28 5.56, 6.74 -0.4, 15.07 0" stroke="#000000" stroke-width="1" fill="none"></path></g><g transform="translate(404.8623046875 361.9755859375) rotate(0 17 10)"><text x="17" y="0" font-family="Virgil, Segoe UI Emoji" font-size="16px" fill="#000000" text-anchor="middle" style="white-space: pre;" direction="ltr" dominant-baseline="text-before-edge">MFE</text></g><g stroke-linecap="round" transform="translate(655.8943619133512 83.55078125) rotate(0 136.23445966832435 164.845703125)"><path d="M32 0 C108.51 0.08, 185.47 0.59, 240.47 0 M32 0 C107.88 -0.5, 184.42 -1.45, 240.47 0 M240.47 0 C260.02 0.14, 272.52 8.95, 272.47 32 M240.47 0 C261.18 0.22, 274.71 12.34, 272.47 32 M272.47 32 C273.38 111.04, 275.29 191.43, 272.47 297.69 M272.47 32 C271.42 111.35, 272.66 191.99, 272.47 297.69 M272.47 297.69 C273.56 317.91, 260.9 328.44, 240.47 329.69 M272.47 297.69 C271.63 320.4, 263.38 330.44, 240.47 329.69 M240.47 329.69 C183.65 326.29, 123.74 328.03, 32 329.69 M240.47 329.69 C158.28 328.29, 76.17 328.34, 32 329.69 M32 329.69 C12.47 327.99, 1.88 319.61, 0 297.69 M32 329.69 C12.82 327.54, -2.01 319.89, 0 297.69 M0 297.69 C1.31 228.42, 1.23 160.8, 0 32 M0 297.69 C-1.19 243.03, -0.32 189.07, 0 32 M0 32 C-0.12 11.75, 11.55 -0.13, 32 0 M0 32 C1.78 11.4, 10.07 -0.98, 32 0" stroke="#000000" stroke-width="1" fill="none"></path></g><g transform="translate(727.6288215816759 225.396484375) rotate(0 64.5 23)"><text x="64.5" y="0" font-family="Virgil, Segoe UI Emoji" font-size="18.29151286279253px" fill="#000000" text-anchor="middle" style="white-space: pre;" direction="ltr" dominant-baseline="text-before-edge">New</text><text x="64.5" y="23" font-family="Virgil, Segoe UI Emoji" font-size="18.29151286279253px" fill="#000000" text-anchor="middle" style="white-space: pre;" direction="ltr" dominant-baseline="text-before-edge">Design System</text></g><g stroke-linecap="round"><g transform="translate(184.03569577337066 206.81586672662934) rotate(0 99.25363648831467 -4.521200925882056)"><path d="M-0.28 -0.47 C32.88 -1.97, 166.19 -7.03, 199.23 -8.43 M1.78 -1.76 C34.81 -3.67, 166.13 -9.29, 198.66 -10.23" stroke="#000000" stroke-width="1" fill="none"></path></g><g transform="translate(184.03569577337066 206.81586672662934) rotate(0 99.25363648831467 -4.521200925882056)"><path d="M175.5 -0.81 C182.18 -2.62, 191.48 -7.79, 198.66 -10.23 M175.5 -0.81 C183.13 -4.36, 190.71 -6.18, 198.66 -10.23" stroke="#000000" stroke-width="1" fill="none"></path></g><g transform="translate(184.03569577337066 206.81586672662934) rotate(0 99.25363648831467 -4.521200925882056)"><path d="M174.86 -17.9 C181.83 -14.16, 191.34 -13.8, 198.66 -10.23 M174.86 -17.9 C182.58 -16.05, 190.37 -12.47, 198.66 -10.23" stroke="#000000" stroke-width="1" fill="none"></path></g></g><mask></mask><g stroke-linecap="round"><g transform="translate(206.31214624809627 294.64085369127196) rotate(0 90.62016432530311 -1.0966318553074927)"><path d="M0.92 0.83 C31.15 0.36, 151.14 -1.87, 181.2 -2.49 M-0.05 0.21 C30.03 -0.11, 150.13 -0.75, 180.23 -1.1" stroke="#000000" stroke-width="1" fill="none"></path></g><g transform="translate(206.31214624809627 294.64085369127196) rotate(0 90.62016432530311 -1.0966318553074927)"><path d="M156.81 7.64 C164.9 4.88, 169.77 2.57, 180.23 -1.1 M156.81 7.64 C161.71 4.44, 168.13 3.73, 180.23 -1.1" stroke="#000000" stroke-width="1" fill="none"></path></g><g transform="translate(206.31214624809627 294.64085369127196) rotate(0 90.62016432530311 -1.0966318553074927)"><path d="M156.67 -9.46 C164.85 -7.3, 169.76 -4.7, 180.23 -1.1 M156.67 -9.46 C161.66 -8.51, 168.12 -5.06, 180.23 -1.1" stroke="#000000" stroke-width="1" fill="none"></path></g></g><mask></mask><g stroke-linecap="round"><g transform="translate(97.56872077649552 348.1969042235045) rotate(0 142.94610836175224 11.658179426296044)"><path d="M-0.44 1.16 C47.12 5.01, 237.48 20.43, 285.22 24.18 M1.53 0.72 C49.5 4.76, 240.28 19.05, 287.58 22.51" stroke="#000000" stroke-width="1" fill="none"></path></g><g transform="translate(97.56872077649552 348.1969042235045) rotate(0 142.94610836175224 11.658179426296044)"><path d="M263.52 29.29 C272.27 26.32, 278.67 25.68, 287.58 22.51 M263.52 29.29 C271.76 27.45, 278.93 24.82, 287.58 22.51" stroke="#000000" stroke-width="1" fill="none"></path></g><g transform="translate(97.56872077649552 348.1969042235045) rotate(0 142.94610836175224 11.658179426296044)"><path d="M264.78 12.24 C273.32 14.14, 279.36 18.39, 287.58 22.51 M264.78 12.24 C272.58 15.99, 279.33 18.97, 287.58 22.51" stroke="#000000" stroke-width="1" fill="none"></path></g></g><mask></mask><g stroke-linecap="round"><g transform="translate(82.02160361747815 197.05438140552718) rotate(0 150.33137543913836 -41.95950391510772)"><path d="M0.06 0.72 C50.32 -13.27, 250.5 -69.28, 300.64 -83.42 M-1.36 0.05 C48.82 -14.34, 249.4 -71.46, 299.68 -85.28" stroke="#000000" stroke-width="1" fill="none"></path></g><g transform="translate(82.02160361747815 197.05438140552718) rotate(0 150.33137543913836 -41.95950391510772)"><path d="M279.37 -70.7 C285.06 -74.01, 289.24 -76.8, 299.68 -85.28 M279.37 -70.7 C285.3 -74.3, 291.3 -79.61, 299.68 -85.28" stroke="#000000" stroke-width="1" fill="none"></path></g><g transform="translate(82.02160361747815 197.05438140552718) rotate(0 150.33137543913836 -41.95950391510772)"><path d="M274.75 -87.17 C281.54 -86.79, 286.76 -85.89, 299.68 -85.28 M274.75 -87.17 C281.89 -86.03, 289.21 -86.66, 299.68 -85.28" stroke="#000000" stroke-width="1" fill="none"></path></g></g><mask></mask><g stroke-linecap="round"><g transform="translate(653.0820312500001 121.48046875) rotate(0 -95.142578125 0.11328125)"><path d="M-1.09 0.46 C-32.91 0.55, -159.59 -0.51, -190.94 -0.59 M0.53 -0.35 C-30.89 -0.02, -156.92 0.27, -188.57 0.52" stroke="#000000" stroke-width="1" fill="none"></path></g><g transform="translate(653.0820312500001 121.48046875) rotate(0 -95.142578125 0.11328125)"><path d="M-165.12 -8.14 C-171.44 -6.86, -180.56 -1.35, -188.57 0.52 M-165.12 -8.14 C-171.22 -6.59, -179.1 -3.45, -188.57 0.52" stroke="#000000" stroke-width="1" fill="none"></path></g><g transform="translate(653.0820312500001 121.48046875) rotate(0 -95.142578125 0.11328125)"><path d="M-165.04 8.96 C-171.22 5.14, -180.36 5.54, -188.57 0.52 M-165.04 8.96 C-171.18 5.72, -179.08 4.07, -188.57 0.52" stroke="#000000" stroke-width="1" fill="none"></path></g></g><mask></mask><g stroke-linecap="round"><g transform="translate(651.6406250000001 211.07421875) rotate(0 -94.958984375 0.033203125)"><path d="M-0.53 0.27 C-31.86 0.29, -157.37 1.26, -189.06 1.25 M1.39 -0.64 C-29.92 -0.4, -157.96 -0.63, -189.55 -0.25" stroke="#000000" stroke-width="1" fill="none"></path></g><g transform="translate(651.6406250000001 211.07421875) rotate(0 -94.958984375 0.033203125)"><path d="M-166.09 -8.9 C-170.47 -5.76, -173.84 -6.61, -189.55 -0.25 M-166.09 -8.9 C-173.83 -5.9, -181.27 -3.53, -189.55 -0.25" stroke="#000000" stroke-width="1" fill="none"></path></g><g transform="translate(651.6406250000001 211.07421875) rotate(0 -94.958984375 0.033203125)"><path d="M-166.02 8.2 C-170.57 7.77, -173.96 3.34, -189.55 -0.25 M-166.02 8.2 C-173.76 5.84, -181.23 2.84, -189.55 -0.25" stroke="#000000" stroke-width="1" fill="none"></path></g></g><mask></mask><g stroke-linecap="round"><g transform="translate(654.8085937500001 296.87109375) rotate(0 -95.8671875 0.158203125)"><path d="M0.42 0.9 C-31.71 1.02, -159.63 0.21, -191.6 0.27 M-0.82 0.32 C-33.2 0.69, -160.62 1.94, -192.47 1.78" stroke="#000000" stroke-width="1" fill="none"></path></g><g transform="translate(654.8085937500001 296.87109375) rotate(0 -95.8671875 0.158203125)"><path d="M-169.01 -6.85 C-176.93 -3.09, -187.87 0.76, -192.47 1.78 M-169.01 -6.85 C-177.74 -4.06, -187.35 -0.01, -192.47 1.78" stroke="#000000" stroke-width="1" fill="none"></path></g><g transform="translate(654.8085937500001 296.87109375) rotate(0 -95.8671875 0.158203125)"><path d="M-168.95 10.25 C-176.82 7.18, -187.79 4.2, -192.47 1.78 M-168.95 10.25 C-177.68 6.6, -187.31 4.22, -192.47 1.78" stroke="#000000" stroke-width="1" fill="none"></path></g></g><mask></mask><g stroke-linecap="round"><g transform="translate(650.4687500000001 374.8359375) rotate(0 -93.123046875 0.91015625)"><path d="M-1.18 0.74 C-32.07 1.15, -154.47 2.88, -185.22 2.89 M0.41 0.08 C-30.57 0.15, -154.54 1.07, -185.64 1.33" stroke="#000000" stroke-width="1" fill="none"></path></g><g transform="translate(650.4687500000001 374.8359375) rotate(0 -93.123046875 0.91015625)"><path d="M-162.21 -7.4 C-168.23 -3.22, -174.96 -1.28, -185.64 1.33 M-162.21 -7.4 C-166.27 -4.86, -172.32 -3.76, -185.64 1.33" stroke="#000000" stroke-width="1" fill="none"></path></g><g transform="translate(650.4687500000001 374.8359375) rotate(0 -93.123046875 0.91015625)"><path d="M-162.08 9.7 C-168.2 8.57, -174.97 5.19, -185.64 1.33 M-162.08 9.7 C-166.27 8.55, -172.35 5.96, -185.64 1.33" stroke="#000000" stroke-width="1" fill="none"></path></g></g><mask></mask><g transform="translate(391.3623046875 10) rotate(0 29.589981079101562 12.5)"><text x="0" y="0" font-family="Virgil, Segoe UI Emoji" font-size="20px" fill="#000000" text-anchor="start" style="white-space: pre;" direction="ltr" dominant-baseline="text-before-edge">React</text></g><g transform="translate(761.6288215816759 10) rotate(0 29.589981079101562 12.5)"><text x="0" y="0" font-family="Virgil, Segoe UI Emoji" font-size="20px" fill="#000000" text-anchor="start" style="white-space: pre;" direction="ltr" dominant-baseline="text-before-edge">React</text></g><g transform="translate(52.845703125 10) rotate(0 75.52995300292969 12.5)"><text x="0" y="0" font-family="Virgil, Segoe UI Emoji" font-size="20px" fill="#000000" text-anchor="start" style="white-space: pre;" direction="ltr" dominant-baseline="text-before-edge">Dojo / C#.NET</text></g></svg>